<svg xmlns="http://www.w3.org/2000/svg" version="1.1" width="617" height="209">
<path d="M 2.878906 13.319336 L 2.878906 6.412109 L 6.729980 6.412109 L 6.729980 7.335938 L 3.738281 7.335938 L 3.738281 13.319336 Z " fill="rgb(0, 0, 0)" fill-opacity="1.000000" />
<path d="M 2.878906 26.319336 L 2.878906 12.300781 L 3.738281 12.300781 L 3.738281 26.319336 Z " fill="rgb(0, 0, 0)" fill-opacity="1.000000" />
<path d="M 2.878906 39.319336 L 2.878906 25.300781 L 3.738281 25.300781 L 3.738281 39.319336 Z " fill="rgb(0, 0, 0)" fill-opacity="1.000000" />
<path d="M 2.878906 52.319336 L 2.878906 38.300781 L 3.738281 38.300781 L 3.738281 52.319336 Z " fill="rgb(0, 0, 0)" fill-opacity="1.000000" />
<path d="M 2.878906 65.319336 L 2.878906 51.300781 L 3.738281 51.300781 L 3.738281 65.319336 Z " fill="rgb(0, 0, 0)" fill-opacity="1.000000" />
<path d="M 2.878906 78.319336 L 2.878906 64.300781 L 3.738281 64.300781 L 3.738281 78.319336 Z " fill="rgb(0, 0, 0)" fill-opacity="1.000000" />
<path d="M 2.878906 85.335938 L 2.878906 77.300781 L 3.738281 77.300781 L 3.738281 84.412109 L 6.729980 84.412109 L 6.729980 85.335938 Z " fill="rgb(0, 0, 0)" fill-opacity="1.000000" />
<path d="M 478.878906 130.319336 L 478.878906 123.412109 L 482.729980 123.412109 L 482.729980 124.335938 L 479.738281 124.335938 L 479.738281 130.319336 Z " fill="rgb(0, 0, 0)" fill-opacity="1.000000" />
<path d="M 478.878906 143.319336 L 478.878906 129.300781 L 479.738281 129.300781 L 479.738281 143.319336 Z " fill="rgb(0, 0, 0)" fill-opacity="1.000000" />
<path d="M 478.878906 156.319336 L 478.878906 142.300781 L 479.738281 142.300781 L 479.738281 156.319336 Z " fill="rgb(0, 0, 0)" fill-opacity="1.000000" />
<path d="M 478.878906 169.319336 L 478.878906 155.300781 L 479.738281 155.300781 L 479.738281 169.319336 Z " fill="rgb(0, 0, 0)" fill-opacity="1.000000" />
<path d="M 478.878906 182.319336 L 478.878906 168.300781 L 479.738281 168.300781 L 479.738281 182.319336 Z " fill="rgb(0, 0, 0)" fill-opacity="1.000000" />
<path d="M 478.878906 195.319336 L 478.878906 181.300781 L 479.738281 181.300781 L 479.738281 195.319336 Z " fill="rgb(0, 0, 0)" fill-opacity="1.000000" />
<path d="M 478.878906 202.335938 L 478.878906 194.300781 L 479.738281 194.300781 L 479.738281 201.412109 L 482.729980 201.412109 L 482.729980 202.335938 Z " fill="rgb(0, 0, 0)" fill-opacity="1.000000" />
<path d="M 482.892578 202.335938 L 482.892578 201.412109 L 489.729980 201.412109 L 489.729980 202.335938 Z " fill="rgb(0, 0, 0)" fill-opacity="1.000000" />
<path d="M 489.892578 202.335938 L 489.892578 201.412109 L 496.729980 201.412109 L 496.729980 202.335938 Z " fill="rgb(0, 0, 0)" fill-opacity="1.000000" />
<path d="M 496.892578 202.335938 L 496.892578 201.412109 L 503.729980 201.412109 L 503.729980 202.335938 Z " fill="rgb(0, 0, 0)" fill-opacity="1.000000" />
<path d="M 503.892578 202.335938 L 503.892578 201.412109 L 510.729980 201.412109 L 510.729980 202.335938 Z " fill="rgb(0, 0, 0)" fill-opacity="1.000000" />
<path d="M 510.892578 202.335938 L 510.892578 201.412109 L 517.729980 201.412109 L 517.729980 202.335938 Z " fill="rgb(0, 0, 0)" fill-opacity="1.000000" />
<path d="M 517.892578 202.335938 L 517.892578 201.412109 L 524.729980 201.412109 L 524.729980 202.335938 Z " fill="rgb(0, 0, 0)" fill-opacity="1.000000" />
<path d="M 524.892578 202.335938 L 524.892578 201.412109 L 531.729980 201.412109 L 531.729980 202.335938 Z " fill="rgb(0, 0, 0)" fill-opacity="1.000000" />
<path d="M 531.892578 202.335938 L 531.892578 201.412109 L 538.729980 201.412109 L 538.729980 202.335938 Z " fill="rgb(0, 0, 0)" fill-opacity="1.000000" />
<path d="M 538.892578 202.335938 L 538.892578 201.412109 L 545.729980 201.412109 L 545.729980 202.335938 Z " fill="rgb(0, 0, 0)" fill-opacity="1.000000" />
<path d="M 545.892578 202.335938 L 545.892578 201.412109 L 552.729980 201.412109 L 552.729980 202.335938 Z " fill="rgb(0, 0, 0)" fill-opacity="1.000000" />
<path d="M 552.892578 202.335938 L 552.892578 201.412109 L 559.729980 201.412109 L 559.729980 202.335938 Z " fill="rgb(0, 0, 0)" fill-opacity="1.000000" />
<path d="M 559.892578 202.335938 L 559.892578 201.412109 L 566.729980 201.412109 L 566.729980 202.335938 Z " fill="rgb(0, 0, 0)" fill-opacity="1.000000" />
<path d="M 566.892578 202.335938 L 566.892578 201.412109 L 573.729980 201.412109 L 573.729980 202.335938 Z " fill="rgb(0, 0, 0)" fill-opacity="1.000000" />
<path d="M 573.892578 202.335938 L 573.892578 201.412109 L 580.729980 201.412109 L 580.729980 202.335938 Z " fill="rgb(0, 0, 0)" fill-opacity="1.000000" />
<path d="M 580.892578 202.335938 L 580.892578 201.412109 L 587.729980 201.412109 L 587.729980 202.335938 Z " fill="rgb(0, 0, 0)" fill-opacity="1.000000" />
<path d="M 587.892578 202.335938 L 587.892578 201.412109 L 594.729980 201.412109 L 594.729980 202.335938 Z " fill="rgb(0, 0, 0)" fill-opacity="1.000000" />
<path d="M 594.892578 202.335938 L 594.892578 201.412109 L 601.729980 201.412109 L 601.729980 202.335938 Z " fill="rgb(0, 0, 0)" fill-opacity="1.000000" />
<path d="M 601.892578 202.335938 L 601.892578 201.412109 L 608.729980 201.412109 L 608.729980 202.335938 Z " fill="rgb(0, 0, 0)" fill-opacity="1.000000" />
<path d="M 608.892578 202.335938 L 608.892578 201.412109 L 611.878906 201.412109 L 611.878906 194.300781 L 612.738281 194.300781 L 612.738281 202.335938 Z " fill="rgb(0, 0, 0)" fill-opacity="1.000000" />
<path d="M 490.789551 136.922363 L 490.789551 131.980957 L 491.879883 131.980957 L 491.879883 137.416504 Q 491.879883 138.001953 491.912109 138.251709 Q 491.944336 138.501465 492.024902 138.635742 Q 492.196777 138.952637 492.521729 139.113770 Q 492.846680 139.274902 493.308594 139.274902 Q 493.775879 139.274902 494.098145 139.113770 Q 494.420410 138.952637 494.597656 138.635742 Q 494.678223 138.501465 494.710449 138.254395 Q 494.742676 138.007324 494.742676 137.427246 L 494.742676 131.980957 L 495.827637 131.980957 L 495.827637 136.922363 Q 495.827637 138.152344 495.674561 138.670654 Q 495.521484 139.188965 495.145508 139.527344 Q 494.791016 139.844238 494.334473 140.000000 Q 493.877930 140.155762 493.308594 140.155762 Q 492.744629 140.155762 492.288086 140.000000 Q 491.831543 139.844238 491.471680 139.527344 Q 491.101074 139.194336 490.945312 138.665283 Q 490.789551 138.136230 490.789551 136.922363 Z " fill="rgb(0, 0, 0)" fill-opacity="1.000000" />
<path d="M 490.547852 162.111328 L 496.241211 162.111328 L 496.241211 163.019043 L 490.547852 163.019043 Z " fill="rgb(0, 0, 0)" fill-opacity="1.000000" />
<path d="M 490.547852 175.111328 L 496.241211 175.111328 L 496.241211 176.019043 L 490.547852 176.019043 Z " fill="rgb(0, 0, 0)" fill-opacity="1.000000" />
<path d="M 490.547852 188.111328 L 496.241211 188.111328 L 496.241211 189.019043 L 490.547852 189.019043 Z " fill="rgb(0, 0, 0)" fill-opacity="1.000000" />
<path d="M 510.015625 162.498047 L 510.015625 162.981445 L 505.734863 162.981445 L 505.734863 163.013672 Q 505.691895 164.243652 506.204834 164.780762 Q 506.717773 165.317871 507.652344 165.317871 Q 508.125000 165.317871 508.640625 165.167480 Q 509.156250 165.017090 509.741699 164.710938 L 509.741699 165.693848 Q 509.177734 165.924805 508.654053 166.040283 Q 508.130371 166.155762 507.641602 166.155762 Q 506.239746 166.155762 505.450195 165.315186 Q 504.660645 164.474609 504.660645 162.997559 Q 504.660645 161.558105 505.434082 160.698730 Q 506.207520 159.839355 507.496582 159.839355 Q 508.645996 159.839355 509.309326 160.618164 Q 509.972656 161.396973 510.015625 162.498047 Z M 509.027344 162.208008 Q 508.962891 161.584961 508.573486 161.131104 Q 508.184082 160.677246 507.453613 160.677246 Q 506.739258 160.677246 506.277344 161.149902 Q 505.815430 161.622559 505.772461 162.213379 Z " fill="rgb(0, 0, 0)" fill-opacity="1.000000" />
<path d="M 506.014160 178.242676 L 506.014160 181.288086 L 505.020508 181.288086 L 505.020508 172.984375 L 506.014160 172.984375 L 506.014160 173.752441 Q 506.261230 173.306641 506.672119 173.072998 Q 507.083008 172.839355 507.620117 172.839355 Q 508.710449 172.839355 509.330811 173.682617 Q 509.951172 174.525879 509.951172 176.019043 Q 509.951172 177.485352 509.328125 178.320557 Q 508.705078 179.155762 507.620117 179.155762 Q 507.072266 179.155762 506.661377 178.922119 Q 506.250488 178.688477 506.014160 178.242676 Z M 508.914551 175.997559 Q 508.914551 174.848145 508.552002 174.262695 Q 508.189453 173.677246 507.475098 173.677246 Q 506.755371 173.677246 506.384766 174.265381 Q 506.014160 174.853516 506.014160 175.997559 Q 506.014160 177.136230 506.384766 177.727051 Q 506.755371 178.317871 507.475098 178.317871 Q 508.189453 178.317871 508.552002 177.732422 Q 508.914551 177.146973 508.914551 175.997559 Z " fill="rgb(0, 0, 0)" fill-opacity="1.000000" />
<path d="M 507.770508 188.976074 L 507.442871 188.976074 Q 506.578125 188.976074 506.140381 189.279541 Q 505.702637 189.583008 505.702637 190.184570 Q 505.702637 190.727051 506.030273 191.027832 Q 506.357910 191.328613 506.937988 191.328613 Q 507.754395 191.328613 508.221680 190.761963 Q 508.688965 190.195312 508.694336 189.196289 L 508.694336 188.976074 Z M 509.687988 188.567871 L 509.687988 192.000000 L 508.694336 192.000000 L 508.694336 191.108398 Q 508.377441 191.645508 507.896729 191.900635 Q 507.416016 192.155762 506.728516 192.155762 Q 505.810059 192.155762 505.262207 191.637451 Q 504.714355 191.119141 504.714355 190.249023 Q 504.714355 189.244629 505.388428 188.723633 Q 506.062500 188.202637 507.367676 188.202637 L 508.694336 188.202637 L 508.694336 188.046875 Q 508.688965 187.327148 508.329102 187.002197 Q 507.969238 186.677246 507.179688 186.677246 Q 506.674805 186.677246 506.159180 186.822266 Q 505.643555 186.967285 505.154785 187.246582 L 505.154785 186.258301 Q 505.702637 186.048828 506.204834 185.944092 Q 506.707031 185.839355 507.179688 185.839355 Q 507.926270 185.839355 508.455322 186.059570 Q 508.984375 186.279785 509.312012 186.720215 Q 509.516113 186.988770 509.602051 187.383545 Q 509.687988 187.778320 509.687988 188.567871 Z " fill="rgb(0, 0, 0)" fill-opacity="1.000000" />
<path d="M 515.608398 186.752441 L 515.608398 183.642578 L 516.596680 183.642578 L 516.596680 192.000000 L 515.608398 192.000000 L 515.608398 191.242676 Q 515.361328 191.688477 514.950439 191.922119 Q 514.539551 192.155762 514.002441 192.155762 Q 512.912109 192.155762 512.286377 191.309814 Q 511.660645 190.463867 511.660645 188.976074 Q 511.660645 187.509766 512.289062 186.674561 Q 512.917480 185.839355 514.002441 185.839355 Q 514.544922 185.839355 514.958496 186.072998 Q 515.372070 186.306641 515.608398 186.752441 Z M 512.702637 188.997559 Q 512.702637 190.146973 513.067871 190.732422 Q 513.433105 191.317871 514.147461 191.317871 Q 514.861816 191.317871 515.235107 190.727051 Q 515.608398 190.136230 515.608398 188.997559 Q 515.608398 187.853516 515.235107 187.265381 Q 514.861816 186.677246 514.147461 186.677246 Q 513.433105 186.677246 513.067871 187.262695 Q 512.702637 187.848145 512.702637 188.997559 Z " fill="rgb(0, 0, 0)" fill-opacity="1.000000" />
<path d="M 521.630859 186.596680 Q 521.813477 186.209961 522.095459 186.024658 Q 522.377441 185.839355 522.774902 185.839355 Q 523.500000 185.839355 523.798096 186.400635 Q 524.096191 186.961914 524.096191 188.514160 L 524.096191 192.000000 L 523.193848 192.000000 L 523.193848 188.557129 Q 523.193848 187.284180 523.051514 186.975342 Q 522.909180 186.666504 522.533203 186.666504 Q 522.103516 186.666504 521.945068 186.996826 Q 521.786621 187.327148 521.786621 188.557129 L 521.786621 192.000000 L 520.884277 192.000000 L 520.884277 188.557129 Q 520.884277 187.268066 520.731201 186.967285 Q 520.578125 186.666504 520.180664 186.666504 Q 519.788574 186.666504 519.635498 186.996826 Q 519.482422 187.327148 519.482422 188.557129 L 519.482422 192.000000 L 518.585449 192.000000 L 518.585449 185.984375 L 519.482422 185.984375 L 519.482422 186.500000 Q 519.659668 186.177734 519.925537 186.008545 Q 520.191406 185.839355 520.529785 185.839355 Q 520.937988 185.839355 521.209229 186.027344 Q 521.480469 186.215332 521.630859 186.596680 Z " fill="rgb(0, 0, 0)" fill-opacity="1.000000" />
<path d="M 526.697266 186.005859 L 529.227051 186.005859 L 529.227051 191.231934 L 531.187500 191.231934 L 531.187500 192.000000 L 526.278320 192.000000 L 526.278320 191.231934 L 528.238770 191.231934 L 528.238770 186.773926 L 526.697266 186.773926 Z M 528.238770 183.669434 L 529.227051 183.669434 L 529.227051 184.915527 L 528.238770 184.915527 Z " fill="rgb(0, 0, 0)" fill-opacity="1.000000" />
<path d="M 537.645020 188.272461 L 537.645020 192.000000 L 536.651367 192.000000 L 536.651367 188.272461 Q 536.651367 187.461426 536.366699 187.080078 Q 536.082031 186.698730 535.475098 186.698730 Q 534.782227 186.698730 534.408936 187.190186 Q 534.035645 187.681641 534.035645 188.600098 L 534.035645 192.000000 L 533.047363 192.000000 L 533.047363 185.984375 L 534.035645 185.984375 L 534.035645 186.886719 Q 534.298828 186.371094 534.750000 186.105225 Q 535.201172 185.839355 535.818848 185.839355 Q 536.737305 185.839355 537.191162 186.443604 Q 537.645020 187.047852 537.645020 188.272461 Z " fill="rgb(0, 0, 0)" fill-opacity="1.000000" />
<path d="M 611.878906 195.319336 L 611.878906 181.300781 L 612.738281 181.300781 L 612.738281 195.319336 Z " fill="rgb(0, 0, 0)" fill-opacity="1.000000" />
<path d="M 514.770508 175.976074 L 514.442871 175.976074 Q 513.578125 175.976074 513.140381 176.279541 Q 512.702637 176.583008 512.702637 177.184570 Q 512.702637 177.727051 513.030273 178.027832 Q 513.357910 178.328613 513.937988 178.328613 Q 514.754395 178.328613 515.221680 177.761963 Q 515.688965 177.195312 515.694336 176.196289 L 515.694336 175.976074 Z M 516.687988 175.567871 L 516.687988 179.000000 L 515.694336 179.000000 L 515.694336 178.108398 Q 515.377441 178.645508 514.896729 178.900635 Q 514.416016 179.155762 513.728516 179.155762 Q 512.810059 179.155762 512.262207 178.637451 Q 511.714355 178.119141 511.714355 177.249023 Q 511.714355 176.244629 512.388428 175.723633 Q 513.062500 175.202637 514.367676 175.202637 L 515.694336 175.202637 L 515.694336 175.046875 Q 515.688965 174.327148 515.329102 174.002197 Q 514.969238 173.677246 514.179688 173.677246 Q 513.674805 173.677246 513.159180 173.822266 Q 512.643555 173.967285 512.154785 174.246582 L 512.154785 173.258301 Q 512.702637 173.048828 513.204834 172.944092 Q 513.707031 172.839355 514.179688 172.839355 Q 514.926270 172.839355 515.455322 173.059570 Q 515.984375 173.279785 516.312012 173.720215 Q 516.516113 173.988770 516.602051 174.383545 Q 516.687988 174.778320 516.687988 175.567871 Z " fill="rgb(0, 0, 0)" fill-opacity="1.000000" />
<path d="M 523.226074 173.193848 L 523.226074 174.160645 Q 522.801758 173.913574 522.372070 173.790039 Q 521.942383 173.666504 521.496582 173.666504 Q 520.825195 173.666504 520.494873 173.884033 Q 520.164551 174.101562 520.164551 174.547363 Q 520.164551 174.950195 520.411621 175.148926 Q 520.658691 175.347656 521.641602 175.535645 L 522.039062 175.610840 Q 522.774902 175.750488 523.153564 176.169434 Q 523.532227 176.588379 523.532227 177.259766 Q 523.532227 178.151367 522.898438 178.653564 Q 522.264648 179.155762 521.136719 179.155762 Q 520.690918 179.155762 520.202148 179.061768 Q 519.713379 178.967773 519.144043 178.779785 L 519.144043 177.759277 Q 519.697266 178.043945 520.202148 178.186279 Q 520.707031 178.328613 521.158203 178.328613 Q 521.813477 178.328613 522.173340 178.062744 Q 522.533203 177.796875 522.533203 177.318848 Q 522.533203 176.631348 521.217285 176.368164 L 521.174316 176.357422 L 520.803711 176.282227 Q 519.949707 176.115723 519.557617 175.720947 Q 519.165527 175.326172 519.165527 174.644043 Q 519.165527 173.779297 519.750977 173.309326 Q 520.336426 172.839355 521.421387 172.839355 Q 521.904785 172.839355 522.350586 172.927979 Q 522.796387 173.016602 523.226074 173.193848 Z " fill="rgb(0, 0, 0)" fill-opacity="1.000000" />
<path d="M 530.226074 173.193848 L 530.226074 174.160645 Q 529.801758 173.913574 529.372070 173.790039 Q 528.942383 173.666504 528.496582 173.666504 Q 527.825195 173.666504 527.494873 173.884033 Q 527.164551 174.101562 527.164551 174.547363 Q 527.164551 174.950195 527.411621 175.148926 Q 527.658691 175.347656 528.641602 175.535645 L 529.039062 175.610840 Q 529.774902 175.750488 530.153564 176.169434 Q 530.532227 176.588379 530.532227 177.259766 Q 530.532227 178.151367 529.898438 178.653564 Q 529.264648 179.155762 528.136719 179.155762 Q 527.690918 179.155762 527.202148 179.061768 Q 526.713379 178.967773 526.144043 178.779785 L 526.144043 177.759277 Q 526.697266 178.043945 527.202148 178.186279 Q 527.707031 178.328613 528.158203 178.328613 Q 528.813477 178.328613 529.173340 178.062744 Q 529.533203 177.796875 529.533203 177.318848 Q 529.533203 176.631348 528.217285 176.368164 L 528.174316 176.357422 L 527.803711 176.282227 Q 526.949707 176.115723 526.557617 175.720947 Q 526.165527 175.326172 526.165527 174.644043 Q 526.165527 173.779297 526.750977 173.309326 Q 527.336426 172.839355 528.421387 172.839355 Q 528.904785 172.839355 529.350586 172.927979 Q 529.796387 173.016602 530.226074 173.193848 Z " fill="rgb(0, 0, 0)" fill-opacity="1.000000" />
<path d="M 532.000000 172.984375 L 532.977539 172.984375 L 534.024902 177.845215 L 534.884277 174.740723 L 535.727539 174.740723 L 536.597656 177.845215 L 537.645020 172.984375 L 538.622559 172.984375 L 537.215332 179.000000 L 536.270020 179.000000 L 535.308594 175.702148 L 534.352539 179.000000 L 533.407227 179.000000 Z " fill="rgb(0, 0, 0)" fill-opacity="1.000000" />
<path d="M 542.308594 173.677246 Q 541.556641 173.677246 541.169922 174.262695 Q 540.783203 174.848145 540.783203 175.997559 Q 540.783203 177.141602 541.169922 177.729736 Q 541.556641 178.317871 542.308594 178.317871 Q 543.065918 178.317871 543.452637 177.729736 Q 543.839355 177.141602 543.839355 175.997559 Q 543.839355 174.848145 543.452637 174.262695 Q 543.065918 173.677246 542.308594 173.677246 Z M 542.308594 172.839355 Q 543.560059 172.839355 544.223389 173.650391 Q 544.886719 174.461426 544.886719 175.997559 Q 544.886719 177.539062 544.226074 178.347412 Q 543.565430 179.155762 542.308594 179.155762 Q 541.057129 179.155762 540.396484 178.347412 Q 539.735840 177.539062 539.735840 175.997559 Q 539.735840 174.461426 540.396484 173.650391 Q 541.057129 172.839355 542.308594 172.839355 Z " fill="rgb(0, 0, 0)" fill-opacity="1.000000" />
<path d="M 552.203613 174.225098 Q 551.886719 173.978027 551.559082 173.865234 Q 551.231445 173.752441 550.839355 173.752441 Q 549.915527 173.752441 549.426758 174.332520 Q 548.937988 174.912598 548.937988 176.008301 L 548.937988 179.000000 L 547.944336 179.000000 L 547.944336 172.984375 L 548.937988 172.984375 L 548.937988 174.160645 Q 549.185059 173.521484 549.697998 173.180420 Q 550.210938 172.839355 550.914551 172.839355 Q 551.279785 172.839355 551.596680 172.930664 Q 551.913574 173.021973 552.203613 173.215332 Z " fill="rgb(0, 0, 0)" fill-opacity="1.000000" />
<path d="M 557.608398 173.752441 L 557.608398 170.642578 L 558.596680 170.642578 L 558.596680 179.000000 L 557.608398 179.000000 L 557.608398 178.242676 Q 557.361328 178.688477 556.950439 178.922119 Q 556.539551 179.155762 556.002441 179.155762 Q 554.912109 179.155762 554.286377 178.309814 Q 553.660645 177.463867 553.660645 175.976074 Q 553.660645 174.509766 554.289062 173.674561 Q 554.917480 172.839355 556.002441 172.839355 Q 556.544922 172.839355 556.958496 173.072998 Q 557.372070 173.306641 557.608398 173.752441 Z M 554.702637 175.997559 Q 554.702637 177.146973 555.067871 177.732422 Q 555.433105 178.317871 556.147461 178.317871 Q 556.861816 178.317871 557.235107 177.727051 Q 557.608398 177.136230 557.608398 175.997559 Q 557.608398 174.853516 557.235107 174.265381 Q 556.861816 173.677246 556.147461 173.677246 Q 555.433105 173.677246 555.067871 174.262695 Q 554.702637 174.848145 554.702637 175.997559 Z " fill="rgb(0, 0, 0)" fill-opacity="1.000000" />
<path d="M 611.878906 182.319336 L 611.878906 168.300781 L 612.738281 168.300781 L 612.738281 182.319336 Z " fill="rgb(0, 0, 0)" fill-opacity="1.000000" />
<path d="M 514.630859 160.596680 Q 514.813477 160.209961 515.095459 160.024658 Q 515.377441 159.839355 515.774902 159.839355 Q 516.500000 159.839355 516.798096 160.400635 Q 517.096191 160.961914 517.096191 162.514160 L 517.096191 166.000000 L 516.193848 166.000000 L 516.193848 162.557129 Q 516.193848 161.284180 516.051514 160.975342 Q 515.909180 160.666504 515.533203 160.666504 Q 515.103516 160.666504 514.945068 160.996826 Q 514.786621 161.327148 514.786621 162.557129 L 514.786621 166.000000 L 513.884277 166.000000 L 513.884277 162.557129 Q 513.884277 161.268066 513.731201 160.967285 Q 513.578125 160.666504 513.180664 160.666504 Q 512.788574 160.666504 512.635498 160.996826 Q 512.482422 161.327148 512.482422 162.557129 L 512.482422 166.000000 L 511.585449 166.000000 L 511.585449 159.984375 L 512.482422 159.984375 L 512.482422 160.500000 Q 512.659668 160.177734 512.925537 160.008545 Q 513.191406 159.839355 513.529785 159.839355 Q 513.937988 159.839355 514.209229 160.027344 Q 514.480469 160.215332 514.630859 160.596680 Z " fill="rgb(0, 0, 0)" fill-opacity="1.000000" />
<path d="M 521.770508 162.976074 L 521.442871 162.976074 Q 520.578125 162.976074 520.140381 163.279541 Q 519.702637 163.583008 519.702637 164.184570 Q 519.702637 164.727051 520.030273 165.027832 Q 520.357910 165.328613 520.937988 165.328613 Q 521.754395 165.328613 522.221680 164.761963 Q 522.688965 164.195312 522.694336 163.196289 L 522.694336 162.976074 Z M 523.687988 162.567871 L 523.687988 166.000000 L 522.694336 166.000000 L 522.694336 165.108398 Q 522.377441 165.645508 521.896729 165.900635 Q 521.416016 166.155762 520.728516 166.155762 Q 519.810059 166.155762 519.262207 165.637451 Q 518.714355 165.119141 518.714355 164.249023 Q 518.714355 163.244629 519.388428 162.723633 Q 520.062500 162.202637 521.367676 162.202637 L 522.694336 162.202637 L 522.694336 162.046875 Q 522.688965 161.327148 522.329102 161.002197 Q 521.969238 160.677246 521.179688 160.677246 Q 520.674805 160.677246 520.159180 160.822266 Q 519.643555 160.967285 519.154785 161.246582 L 519.154785 160.258301 Q 519.702637 160.048828 520.204834 159.944092 Q 520.707031 159.839355 521.179688 159.839355 Q 521.926270 159.839355 522.455322 160.059570 Q 522.984375 160.279785 523.312012 160.720215 Q 523.516113 160.988770 523.602051 161.383545 Q 523.687988 161.778320 523.687988 162.567871 Z " fill="rgb(0, 0, 0)" fill-opacity="1.000000" />
<path d="M 526.697266 160.005859 L 529.227051 160.005859 L 529.227051 165.231934 L 531.187500 165.231934 L 531.187500 166.000000 L 526.278320 166.000000 L 526.278320 165.231934 L 528.238770 165.231934 L 528.238770 160.773926 L 526.697266 160.773926 Z M 528.238770 157.669434 L 529.227051 157.669434 L 529.227051 158.915527 L 528.238770 158.915527 Z " fill="rgb(0, 0, 0)" fill-opacity="1.000000" />
<path d="M 535.861816 163.824707 Q 535.861816 164.490723 536.106201 164.829102 Q 536.350586 165.167480 536.828613 165.167480 L 537.983398 165.167480 L 537.983398 166.000000 L 536.731934 166.000000 Q 535.845703 166.000000 535.359619 165.433350 Q 534.873535 164.866699 534.873535 163.824707 L 534.873535 158.383789 L 533.289062 158.383789 L 533.289062 157.610352 L 535.861816 157.610352 Z " fill="rgb(0, 0, 0)" fill-opacity="1.000000" />
<path d="M 611.878906 169.319336 L 611.878906 155.300781 L 612.738281 155.300781 L 612.738281 169.319336 Z " fill="rgb(0, 0, 0)" fill-opacity="1.000000" />
<path d="M 611.878906 156.319336 L 611.878906 142.300781 L 612.738281 142.300781 L 612.738281 156.319336 Z " fill="rgb(0, 0, 0)" fill-opacity="1.000000" />
<path d="M 502.226074 134.193848 L 502.226074 135.160645 Q 501.801758 134.913574 501.372070 134.790039 Q 500.942383 134.666504 500.496582 134.666504 Q 499.825195 134.666504 499.494873 134.884033 Q 499.164551 135.101562 499.164551 135.547363 Q 499.164551 135.950195 499.411621 136.148926 Q 499.658691 136.347656 500.641602 136.535645 L 501.039062 136.610840 Q 501.774902 136.750488 502.153564 137.169434 Q 502.532227 137.588379 502.532227 138.259766 Q 502.532227 139.151367 501.898438 139.653564 Q 501.264648 140.155762 500.136719 140.155762 Q 499.690918 140.155762 499.202148 140.061768 Q 498.713379 139.967773 498.144043 139.779785 L 498.144043 138.759277 Q 498.697266 139.043945 499.202148 139.186279 Q 499.707031 139.328613 500.158203 139.328613 Q 500.813477 139.328613 501.173340 139.062744 Q 501.533203 138.796875 501.533203 138.318848 Q 501.533203 137.631348 500.217285 137.368164 L 500.174316 137.357422 L 499.803711 137.282227 Q 498.949707 137.115723 498.557617 136.720947 Q 498.165527 136.326172 498.165527 135.644043 Q 498.165527 134.779297 498.750977 134.309326 Q 499.336426 133.839355 500.421387 133.839355 Q 500.904785 133.839355 501.350586 133.927979 Q 501.796387 134.016602 502.226074 134.193848 Z " fill="rgb(0, 0, 0)" fill-opacity="1.000000" />
<path d="M 510.015625 136.498047 L 510.015625 136.981445 L 505.734863 136.981445 L 505.734863 137.013672 Q 505.691895 138.243652 506.204834 138.780762 Q 506.717773 139.317871 507.652344 139.317871 Q 508.125000 139.317871 508.640625 139.167480 Q 509.156250 139.017090 509.741699 138.710938 L 509.741699 139.693848 Q 509.177734 139.924805 508.654053 140.040283 Q 508.130371 140.155762 507.641602 140.155762 Q 506.239746 140.155762 505.450195 139.315186 Q 504.660645 138.474609 504.660645 136.997559 Q 504.660645 135.558105 505.434082 134.698730 Q 506.207520 133.839355 507.496582 133.839355 Q 508.645996 133.839355 509.309326 134.618164 Q 509.972656 135.396973 510.015625 136.498047 Z M 509.027344 136.208008 Q 508.962891 135.584961 508.573486 135.131104 Q 508.184082 134.677246 507.453613 134.677246 Q 506.739258 134.677246 506.277344 135.149902 Q 505.815430 135.622559 505.772461 136.213379 Z " fill="rgb(0, 0, 0)" fill-opacity="1.000000" />
<path d="M 517.203613 135.225098 Q 516.886719 134.978027 516.559082 134.865234 Q 516.231445 134.752441 515.839355 134.752441 Q 514.915527 134.752441 514.426758 135.332520 Q 513.937988 135.912598 513.937988 137.008301 L 513.937988 140.000000 L 512.944336 140.000000 L 512.944336 133.984375 L 513.937988 133.984375 L 513.937988 135.160645 Q 514.185059 134.521484 514.697998 134.180420 Q 515.210938 133.839355 515.914551 133.839355 Q 516.279785 133.839355 516.596680 133.930664 Q 516.913574 134.021973 517.203613 134.215332 Z " fill="rgb(0, 0, 0)" fill-opacity="1.000000" />
<path d="M 611.878906 143.319336 L 611.878906 129.300781 L 612.738281 129.300781 L 612.738281 143.319336 Z " fill="rgb(0, 0, 0)" fill-opacity="1.000000" />
<path d="M 482.892578 124.335938 L 482.892578 123.412109 L 489.729980 123.412109 L 489.729980 124.335938 Z " fill="rgb(0, 0, 0)" fill-opacity="1.000000" />
<path d="M 489.892578 124.335938 L 489.892578 123.412109 L 496.729980 123.412109 L 496.729980 124.335938 Z " fill="rgb(0, 0, 0)" fill-opacity="1.000000" />
<path d="M 496.892578 124.335938 L 496.892578 123.412109 L 503.729980 123.412109 L 503.729980 124.335938 Z " fill="rgb(0, 0, 0)" fill-opacity="1.000000" />
<path d="M 503.892578 124.335938 L 503.892578 123.412109 L 510.729980 123.412109 L 510.729980 124.335938 Z " fill="rgb(0, 0, 0)" fill-opacity="1.000000" />
<path d="M 510.892578 124.335938 L 510.892578 123.412109 L 517.729980 123.412109 L 517.729980 124.335938 Z " fill="rgb(0, 0, 0)" fill-opacity="1.000000" />
<path d="M 517.892578 124.335938 L 517.892578 123.412109 L 524.729980 123.412109 L 524.729980 124.335938 Z " fill="rgb(0, 0, 0)" fill-opacity="1.000000" />
<path d="M 524.892578 124.335938 L 524.892578 123.412109 L 531.729980 123.412109 L 531.729980 124.335938 Z " fill="rgb(0, 0, 0)" fill-opacity="1.000000" />
<path d="M 531.892578 124.335938 L 531.892578 123.412109 L 538.729980 123.412109 L 538.729980 124.335938 Z " fill="rgb(0, 0, 0)" fill-opacity="1.000000" />
<path d="M 538.892578 124.335938 L 538.892578 123.412109 L 545.729980 123.412109 L 545.729980 124.335938 Z " fill="rgb(0, 0, 0)" fill-opacity="1.000000" />
<path d="M 545.892578 124.335938 L 545.892578 123.412109 L 552.729980 123.412109 L 552.729980 124.335938 Z " fill="rgb(0, 0, 0)" fill-opacity="1.000000" />
<path d="M 552.892578 124.335938 L 552.892578 123.412109 L 559.729980 123.412109 L 559.729980 124.335938 Z " fill="rgb(0, 0, 0)" fill-opacity="1.000000" />
<path d="M 559.892578 124.335938 L 559.892578 123.412109 L 566.729980 123.412109 L 566.729980 124.335938 Z " fill="rgb(0, 0, 0)" fill-opacity="1.000000" />
<path d="M 566.892578 124.335938 L 566.892578 123.412109 L 573.729980 123.412109 L 573.729980 124.335938 Z " fill="rgb(0, 0, 0)" fill-opacity="1.000000" />
<path d="M 573.892578 124.335938 L 573.892578 123.412109 L 580.729980 123.412109 L 580.729980 124.335938 Z " fill="rgb(0, 0, 0)" fill-opacity="1.000000" />
<path d="M 580.892578 124.335938 L 580.892578 123.412109 L 587.729980 123.412109 L 587.729980 124.335938 Z " fill="rgb(0, 0, 0)" fill-opacity="1.000000" />
<path d="M 587.892578 124.335938 L 587.892578 123.412109 L 594.729980 123.412109 L 594.729980 124.335938 Z " fill="rgb(0, 0, 0)" fill-opacity="1.000000" />
<path d="M 594.892578 124.335938 L 594.892578 123.412109 L 601.729980 123.412109 L 601.729980 124.335938 Z " fill="rgb(0, 0, 0)" fill-opacity="1.000000" />
<path d="M 601.892578 124.335938 L 601.892578 123.412109 L 608.729980 123.412109 L 608.729980 124.335938 Z " fill="rgb(0, 0, 0)" fill-opacity="1.000000" />
<path d="M 611.878906 130.319336 L 611.878906 124.335938 L 608.892578 124.335938 L 608.892578 123.412109 L 612.738281 123.412109 L 612.738281 130.319336 Z " fill="rgb(0, 0, 0)" fill-opacity="1.000000" />
<path d="M 6.892578 85.335938 L 6.892578 84.412109 L 13.729980 84.412109 L 13.729980 85.335938 Z " fill="rgb(0, 0, 0)" fill-opacity="1.000000" />
<path d="M 13.892578 85.335938 L 13.892578 84.412109 L 20.729980 84.412109 L 20.729980 85.335938 Z " fill="rgb(0, 0, 0)" fill-opacity="1.000000" />
<path d="M 20.892578 85.335938 L 20.892578 84.412109 L 27.729980 84.412109 L 27.729980 85.335938 Z " fill="rgb(0, 0, 0)" fill-opacity="1.000000" />
<path d="M 27.892578 85.335938 L 27.892578 84.412109 L 34.729980 84.412109 L 34.729980 85.335938 Z " fill="rgb(0, 0, 0)" fill-opacity="1.000000" />
<path d="M 34.892578 85.335938 L 34.892578 84.412109 L 41.729980 84.412109 L 41.729980 85.335938 Z " fill="rgb(0, 0, 0)" fill-opacity="1.000000" />
<path d="M 41.892578 85.335938 L 41.892578 84.412109 L 48.729980 84.412109 L 48.729980 85.335938 Z " fill="rgb(0, 0, 0)" fill-opacity="1.000000" />
<path d="M 48.892578 85.335938 L 48.892578 84.412109 L 55.729980 84.412109 L 55.729980 85.335938 Z " fill="rgb(0, 0, 0)" fill-opacity="1.000000" />
<path d="M 55.892578 85.335938 L 55.892578 84.412109 L 62.729980 84.412109 L 62.729980 85.335938 Z " fill="rgb(0, 0, 0)" fill-opacity="1.000000" />
<path d="M 62.892578 85.335938 L 62.892578 84.412109 L 69.729980 84.412109 L 69.729980 85.335938 Z " fill="rgb(0, 0, 0)" fill-opacity="1.000000" />
<path d="M 69.892578 85.335938 L 69.892578 84.412109 L 76.729980 84.412109 L 76.729980 85.335938 Z " fill="rgb(0, 0, 0)" fill-opacity="1.000000" />
<path d="M 76.892578 85.335938 L 76.892578 84.412109 L 83.729980 84.412109 L 83.729980 85.335938 Z " fill="rgb(0, 0, 0)" fill-opacity="1.000000" />
<path d="M 83.892578 85.335938 L 83.892578 84.412109 L 90.729980 84.412109 L 90.729980 85.335938 Z " fill="rgb(0, 0, 0)" fill-opacity="1.000000" />
<path d="M 90.892578 85.335938 L 90.892578 84.412109 L 97.729980 84.412109 L 97.729980 85.335938 Z " fill="rgb(0, 0, 0)" fill-opacity="1.000000" />
<path d="M 97.892578 85.335938 L 97.892578 84.412109 L 104.729980 84.412109 L 104.729980 85.335938 Z " fill="rgb(0, 0, 0)" fill-opacity="1.000000" />
<path d="M 104.892578 85.335938 L 104.892578 84.412109 L 111.729980 84.412109 L 111.729980 85.335938 Z " fill="rgb(0, 0, 0)" fill-opacity="1.000000" />
<path d="M 111.892578 85.335938 L 111.892578 84.412109 L 118.729980 84.412109 L 118.729980 85.335938 Z " fill="rgb(0, 0, 0)" fill-opacity="1.000000" />
<path d="M 118.892578 85.335938 L 118.892578 84.412109 L 125.729980 84.412109 L 125.729980 85.335938 Z " fill="rgb(0, 0, 0)" fill-opacity="1.000000" />
<path d="M 125.892578 85.335938 L 125.892578 84.412109 L 132.729980 84.412109 L 132.729980 85.335938 Z " fill="rgb(0, 0, 0)" fill-opacity="1.000000" />
<path d="M 132.892578 85.335938 L 132.892578 84.412109 L 135.878906 84.412109 L 135.878906 77.300781 L 136.738281 77.300781 L 136.738281 85.335938 Z " fill="rgb(0, 0, 0)" fill-opacity="1.000000" />
<path d="M 233.878906 85.335938 L 233.878906 77.300781 L 234.738281 77.300781 L 234.738281 84.412109 L 237.729980 84.412109 L 237.729980 85.335938 Z " fill="rgb(0, 0, 0)" fill-opacity="1.000000" />
<path d="M 237.892578 85.335938 L 237.892578 84.412109 L 244.729980 84.412109 L 244.729980 85.335938 Z " fill="rgb(0, 0, 0)" fill-opacity="1.000000" />
<path d="M 244.892578 85.335938 L 244.892578 84.412109 L 251.729980 84.412109 L 251.729980 85.335938 Z " fill="rgb(0, 0, 0)" fill-opacity="1.000000" />
<path d="M 251.892578 85.335938 L 251.892578 84.412109 L 258.729980 84.412109 L 258.729980 85.335938 Z " fill="rgb(0, 0, 0)" fill-opacity="1.000000" />
<path d="M 258.892578 85.335938 L 258.892578 84.412109 L 265.729980 84.412109 L 265.729980 85.335938 Z " fill="rgb(0, 0, 0)" fill-opacity="1.000000" />
<path d="M 265.892578 85.335938 L 265.892578 84.412109 L 272.729980 84.412109 L 272.729980 85.335938 Z " fill="rgb(0, 0, 0)" fill-opacity="1.000000" />
<path d="M 272.892578 85.335938 L 272.892578 84.412109 L 279.729980 84.412109 L 279.729980 85.335938 Z " fill="rgb(0, 0, 0)" fill-opacity="1.000000" />
<path d="M 279.892578 85.335938 L 279.892578 84.412109 L 286.729980 84.412109 L 286.729980 85.335938 Z " fill="rgb(0, 0, 0)" fill-opacity="1.000000" />
<path d="M 286.892578 85.335938 L 286.892578 84.412109 L 293.729980 84.412109 L 293.729980 85.335938 Z " fill="rgb(0, 0, 0)" fill-opacity="1.000000" />
<path d="M 293.892578 85.335938 L 293.892578 84.412109 L 300.729980 84.412109 L 300.729980 85.335938 Z " fill="rgb(0, 0, 0)" fill-opacity="1.000000" />
<path d="M 300.892578 85.335938 L 300.892578 84.412109 L 307.729980 84.412109 L 307.729980 85.335938 Z " fill="rgb(0, 0, 0)" fill-opacity="1.000000" />
<path d="M 307.892578 85.335938 L 307.892578 84.412109 L 314.729980 84.412109 L 314.729980 85.335938 Z " fill="rgb(0, 0, 0)" fill-opacity="1.000000" />
<path d="M 314.892578 85.335938 L 314.892578 84.412109 L 321.729980 84.412109 L 321.729980 85.335938 Z " fill="rgb(0, 0, 0)" fill-opacity="1.000000" />
<path d="M 321.892578 85.335938 L 321.892578 84.412109 L 328.729980 84.412109 L 328.729980 85.335938 Z " fill="rgb(0, 0, 0)" fill-opacity="1.000000" />
<path d="M 328.892578 85.335938 L 328.892578 84.412109 L 335.729980 84.412109 L 335.729980 85.335938 Z " fill="rgb(0, 0, 0)" fill-opacity="1.000000" />
<path d="M 335.892578 85.335938 L 335.892578 84.412109 L 342.729980 84.412109 L 342.729980 85.335938 Z " fill="rgb(0, 0, 0)" fill-opacity="1.000000" />
<path d="M 342.892578 85.335938 L 342.892578 84.412109 L 349.729980 84.412109 L 349.729980 85.335938 Z " fill="rgb(0, 0, 0)" fill-opacity="1.000000" />
<path d="M 349.892578 85.335938 L 349.892578 84.412109 L 356.729980 84.412109 L 356.729980 85.335938 Z " fill="rgb(0, 0, 0)" fill-opacity="1.000000" />
<path d="M 356.892578 85.335938 L 356.892578 84.412109 L 363.729980 84.412109 L 363.729980 85.335938 Z " fill="rgb(0, 0, 0)" fill-opacity="1.000000" />
<path d="M 363.892578 85.335938 L 363.892578 84.412109 L 366.878906 84.412109 L 366.878906 77.300781 L 367.738281 77.300781 L 367.738281 85.335938 Z " fill="rgb(0, 0, 0)" fill-opacity="1.000000" />
<path d="M 478.878906 85.335938 L 478.878906 77.300781 L 479.738281 77.300781 L 479.738281 84.412109 L 482.729980 84.412109 L 482.729980 85.335938 Z " fill="rgb(0, 0, 0)" fill-opacity="1.000000" />
<path d="M 482.892578 85.335938 L 482.892578 84.412109 L 489.729980 84.412109 L 489.729980 85.335938 Z " fill="rgb(0, 0, 0)" fill-opacity="1.000000" />
<path d="M 489.892578 85.335938 L 489.892578 84.412109 L 496.729980 84.412109 L 496.729980 85.335938 Z " fill="rgb(0, 0, 0)" fill-opacity="1.000000" />
<path d="M 496.892578 85.335938 L 496.892578 84.412109 L 503.729980 84.412109 L 503.729980 85.335938 Z " fill="rgb(0, 0, 0)" fill-opacity="1.000000" />
<path d="M 503.892578 85.335938 L 503.892578 84.412109 L 510.729980 84.412109 L 510.729980 85.335938 Z " fill="rgb(0, 0, 0)" fill-opacity="1.000000" />
<path d="M 510.892578 85.335938 L 510.892578 84.412109 L 517.729980 84.412109 L 517.729980 85.335938 Z " fill="rgb(0, 0, 0)" fill-opacity="1.000000" />
<path d="M 517.892578 85.335938 L 517.892578 84.412109 L 524.729980 84.412109 L 524.729980 85.335938 Z " fill="rgb(0, 0, 0)" fill-opacity="1.000000" />
<path d="M 524.892578 85.335938 L 524.892578 84.412109 L 531.729980 84.412109 L 531.729980 85.335938 Z " fill="rgb(0, 0, 0)" fill-opacity="1.000000" />
<path d="M 531.892578 85.335938 L 531.892578 84.412109 L 538.729980 84.412109 L 538.729980 85.335938 Z " fill="rgb(0, 0, 0)" fill-opacity="1.000000" />
<path d="M 538.892578 85.335938 L 538.892578 84.412109 L 545.729980 84.412109 L 545.729980 85.335938 Z " fill="rgb(0, 0, 0)" fill-opacity="1.000000" />
<path d="M 545.892578 85.335938 L 545.892578 84.412109 L 552.729980 84.412109 L 552.729980 85.335938 Z " fill="rgb(0, 0, 0)" fill-opacity="1.000000" />
<path d="M 552.892578 85.335938 L 552.892578 84.412109 L 559.729980 84.412109 L 559.729980 85.335938 Z " fill="rgb(0, 0, 0)" fill-opacity="1.000000" />
<path d="M 559.892578 85.335938 L 559.892578 84.412109 L 566.729980 84.412109 L 566.729980 85.335938 Z " fill="rgb(0, 0, 0)" fill-opacity="1.000000" />
<path d="M 566.892578 85.335938 L 566.892578 84.412109 L 573.729980 84.412109 L 573.729980 85.335938 Z " fill="rgb(0, 0, 0)" fill-opacity="1.000000" />
<path d="M 573.892578 85.335938 L 573.892578 84.412109 L 580.729980 84.412109 L 580.729980 85.335938 Z " fill="rgb(0, 0, 0)" fill-opacity="1.000000" />
<path d="M 580.892578 85.335938 L 580.892578 84.412109 L 587.729980 84.412109 L 587.729980 85.335938 Z " fill="rgb(0, 0, 0)" fill-opacity="1.000000" />
<path d="M 587.892578 85.335938 L 587.892578 84.412109 L 594.729980 84.412109 L 594.729980 85.335938 Z " fill="rgb(0, 0, 0)" fill-opacity="1.000000" />
<path d="M 594.892578 85.335938 L 594.892578 84.412109 L 601.729980 84.412109 L 601.729980 85.335938 Z " fill="rgb(0, 0, 0)" fill-opacity="1.000000" />
<path d="M 601.892578 85.335938 L 601.892578 84.412109 L 608.729980 84.412109 L 608.729980 85.335938 Z " fill="rgb(0, 0, 0)" fill-opacity="1.000000" />
<path d="M 608.892578 85.335938 L 608.892578 84.412109 L 611.878906 84.412109 L 611.878906 77.300781 L 612.738281 77.300781 L 612.738281 85.335938 Z " fill="rgb(0, 0, 0)" fill-opacity="1.000000" />
<path d="M 17.308594 15.937012 L 16.164551 20.040527 L 18.452637 20.040527 Z M 16.653320 14.980957 L 17.969238 14.980957 L 20.423828 23.000000 L 19.301270 23.000000 L 18.710449 20.910645 L 15.901367 20.910645 L 15.321289 23.000000 L 14.198730 23.000000 Z " fill="rgb(0, 0, 0)" fill-opacity="1.000000" />
<path d="M 14.547852 45.111328 L 20.241211 45.111328 L 20.241211 46.019043 L 14.547852 46.019043 Z " fill="rgb(0, 0, 0)" fill-opacity="1.000000" />
<path d="M 14.547852 58.111328 L 20.241211 58.111328 L 20.241211 59.019043 L 14.547852 59.019043 Z " fill="rgb(0, 0, 0)" fill-opacity="1.000000" />
<path d="M 14.547852 71.111328 L 20.241211 71.111328 L 20.241211 72.019043 L 14.547852 72.019043 Z " fill="rgb(0, 0, 0)" fill-opacity="1.000000" />
<path d="M 29.697266 43.005859 L 32.227051 43.005859 L 32.227051 48.231934 L 34.187500 48.231934 L 34.187500 49.000000 L 29.278320 49.000000 L 29.278320 48.231934 L 31.238770 48.231934 L 31.238770 43.773926 L 29.697266 43.773926 Z M 31.238770 40.669434 L 32.227051 40.669434 L 32.227051 41.915527 L 31.238770 41.915527 Z " fill="rgb(0, 0, 0)" fill-opacity="1.000000" />
<path d="M 33.645020 58.272461 L 33.645020 62.000000 L 32.651367 62.000000 L 32.651367 58.272461 Q 32.651367 57.461426 32.366699 57.080078 Q 32.082031 56.698730 31.475098 56.698730 Q 30.782227 56.698730 30.408936 57.190186 Q 30.035645 57.681641 30.035645 58.600098 L 30.035645 62.000000 L 29.047363 62.000000 L 29.047363 55.984375 L 30.035645 55.984375 L 30.035645 56.886719 Q 30.298828 56.371094 30.750000 56.105225 Q 31.201172 55.839355 31.818848 55.839355 Q 32.737305 55.839355 33.191162 56.443604 Q 33.645020 57.047852 33.645020 58.272461 Z " fill="rgb(0, 0, 0)" fill-opacity="1.000000" />
<path d="M 34.015625 71.498047 L 34.015625 71.981445 L 29.734863 71.981445 L 29.734863 72.013672 Q 29.691895 73.243652 30.204834 73.780762 Q 30.717773 74.317871 31.652344 74.317871 Q 32.125000 74.317871 32.640625 74.167480 Q 33.156250 74.017090 33.741699 73.710938 L 33.741699 74.693848 Q 33.177734 74.924805 32.654053 75.040283 Q 32.130371 75.155762 31.641602 75.155762 Q 30.239746 75.155762 29.450195 74.315186 Q 28.660645 73.474609 28.660645 71.997559 Q 28.660645 70.558105 29.434082 69.698730 Q 30.207520 68.839355 31.496582 68.839355 Q 32.645996 68.839355 33.309326 69.618164 Q 33.972656 70.396973 34.015625 71.498047 Z M 33.027344 71.208008 Q 32.962891 70.584961 32.573486 70.131104 Q 32.184082 69.677246 31.453613 69.677246 Q 30.739258 69.677246 30.277344 70.149902 Q 29.815430 70.622559 29.772461 71.213379 Z " fill="rgb(0, 0, 0)" fill-opacity="1.000000" />
<path d="M 38.630859 69.596680 Q 38.813477 69.209961 39.095459 69.024658 Q 39.377441 68.839355 39.774902 68.839355 Q 40.500000 68.839355 40.798096 69.400635 Q 41.096191 69.961914 41.096191 71.514160 L 41.096191 75.000000 L 40.193848 75.000000 L 40.193848 71.557129 Q 40.193848 70.284180 40.051514 69.975342 Q 39.909180 69.666504 39.533203 69.666504 Q 39.103516 69.666504 38.945068 69.996826 Q 38.786621 70.327148 38.786621 71.557129 L 38.786621 75.000000 L 37.884277 75.000000 L 37.884277 71.557129 Q 37.884277 70.268066 37.731201 69.967285 Q 37.578125 69.666504 37.180664 69.666504 Q 36.788574 69.666504 36.635498 69.996826 Q 36.482422 70.327148 36.482422 71.557129 L 36.482422 75.000000 L 35.585449 75.000000 L 35.585449 68.984375 L 36.482422 68.984375 L 36.482422 69.500000 Q 36.659668 69.177734 36.925537 69.008545 Q 37.191406 68.839355 37.529785 68.839355 Q 37.937988 68.839355 38.209229 69.027344 Q 38.480469 69.215332 38.630859 69.596680 Z " fill="rgb(0, 0, 0)" fill-opacity="1.000000" />
<path d="M 45.770508 71.976074 L 45.442871 71.976074 Q 44.578125 71.976074 44.140381 72.279541 Q 43.702637 72.583008 43.702637 73.184570 Q 43.702637 73.727051 44.030273 74.027832 Q 44.357910 74.328613 44.937988 74.328613 Q 45.754395 74.328613 46.221680 73.761963 Q 46.688965 73.195312 46.694336 72.196289 L 46.694336 71.976074 Z M 47.687988 71.567871 L 47.687988 75.000000 L 46.694336 75.000000 L 46.694336 74.108398 Q 46.377441 74.645508 45.896729 74.900635 Q 45.416016 75.155762 44.728516 75.155762 Q 43.810059 75.155762 43.262207 74.637451 Q 42.714355 74.119141 42.714355 73.249023 Q 42.714355 72.244629 43.388428 71.723633 Q 44.062500 71.202637 45.367676 71.202637 L 46.694336 71.202637 L 46.694336 71.046875 Q 46.688965 70.327148 46.329102 70.002197 Q 45.969238 69.677246 45.179688 69.677246 Q 44.674805 69.677246 44.159180 69.822266 Q 43.643555 69.967285 43.154785 70.246582 L 43.154785 69.258301 Q 43.702637 69.048828 44.204834 68.944092 Q 44.707031 68.839355 45.179688 68.839355 Q 45.926270 68.839355 46.455322 69.059570 Q 46.984375 69.279785 47.312012 69.720215 Q 47.516113 69.988770 47.602051 70.383545 Q 47.687988 70.778320 47.687988 71.567871 Z " fill="rgb(0, 0, 0)" fill-opacity="1.000000" />
<path d="M 50.697266 69.005859 L 53.227051 69.005859 L 53.227051 74.231934 L 55.187500 74.231934 L 55.187500 75.000000 L 50.278320 75.000000 L 50.278320 74.231934 L 52.238770 74.231934 L 52.238770 69.773926 L 50.697266 69.773926 Z M 52.238770 66.669434 L 53.227051 66.669434 L 53.227051 67.915527 L 52.238770 67.915527 Z " fill="rgb(0, 0, 0)" fill-opacity="1.000000" />
<path d="M 59.861816 72.824707 Q 59.861816 73.490723 60.106201 73.829102 Q 60.350586 74.167480 60.828613 74.167480 L 61.983398 74.167480 L 61.983398 75.000000 L 60.731934 75.000000 Q 59.845703 75.000000 59.359619 74.433350 Q 58.873535 73.866699 58.873535 72.824707 L 58.873535 67.383789 L 57.289062 67.383789 L 57.289062 66.610352 L 59.861816 66.610352 Z " fill="rgb(0, 0, 0)" fill-opacity="1.000000" />
<path d="M 135.878906 78.319336 L 135.878906 64.300781 L 136.738281 64.300781 L 136.738281 78.319336 Z " fill="rgb(0, 0, 0)" fill-opacity="1.000000" />
<path d="M 233.878906 78.319336 L 233.878906 64.300781 L 234.738281 64.300781 L 234.738281 78.319336 Z " fill="rgb(0, 0, 0)" fill-opacity="1.000000" />
<path d="M 366.878906 78.319336 L 366.878906 64.300781 L 367.738281 64.300781 L 367.738281 78.319336 Z " fill="rgb(0, 0, 0)" fill-opacity="1.000000" />
<path d="M 478.878906 78.319336 L 478.878906 64.300781 L 479.738281 64.300781 L 479.738281 78.319336 Z " fill="rgb(0, 0, 0)" fill-opacity="1.000000" />
<path d="M 611.878906 78.319336 L 611.878906 64.300781 L 612.738281 64.300781 L 612.738281 78.319336 Z " fill="rgb(0, 0, 0)" fill-opacity="1.000000" />
<path d="M 38.770508 58.976074 L 38.442871 58.976074 Q 37.578125 58.976074 37.140381 59.279541 Q 36.702637 59.583008 36.702637 60.184570 Q 36.702637 60.727051 37.030273 61.027832 Q 37.357910 61.328613 37.937988 61.328613 Q 38.754395 61.328613 39.221680 60.761963 Q 39.688965 60.195312 39.694336 59.196289 L 39.694336 58.976074 Z M 40.687988 58.567871 L 40.687988 62.000000 L 39.694336 62.000000 L 39.694336 61.108398 Q 39.377441 61.645508 38.896729 61.900635 Q 38.416016 62.155762 37.728516 62.155762 Q 36.810059 62.155762 36.262207 61.637451 Q 35.714355 61.119141 35.714355 60.249023 Q 35.714355 59.244629 36.388428 58.723633 Q 37.062500 58.202637 38.367676 58.202637 L 39.694336 58.202637 L 39.694336 58.046875 Q 39.688965 57.327148 39.329102 57.002197 Q 38.969238 56.677246 38.179688 56.677246 Q 37.674805 56.677246 37.159180 56.822266 Q 36.643555 56.967285 36.154785 57.246582 L 36.154785 56.258301 Q 36.702637 56.048828 37.204834 55.944092 Q 37.707031 55.839355 38.179688 55.839355 Q 38.926270 55.839355 39.455322 56.059570 Q 39.984375 56.279785 40.312012 56.720215 Q 40.516113 56.988770 40.602051 57.383545 Q 40.687988 57.778320 40.687988 58.567871 Z " fill="rgb(0, 0, 0)" fill-opacity="1.000000" />
<path d="M 45.630859 56.596680 Q 45.813477 56.209961 46.095459 56.024658 Q 46.377441 55.839355 46.774902 55.839355 Q 47.500000 55.839355 47.798096 56.400635 Q 48.096191 56.961914 48.096191 58.514160 L 48.096191 62.000000 L 47.193848 62.000000 L 47.193848 58.557129 Q 47.193848 57.284180 47.051514 56.975342 Q 46.909180 56.666504 46.533203 56.666504 Q 46.103516 56.666504 45.945068 56.996826 Q 45.786621 57.327148 45.786621 58.557129 L 45.786621 62.000000 L 44.884277 62.000000 L 44.884277 58.557129 Q 44.884277 57.268066 44.731201 56.967285 Q 44.578125 56.666504 44.180664 56.666504 Q 43.788574 56.666504 43.635498 56.996826 Q 43.482422 57.327148 43.482422 58.557129 L 43.482422 62.000000 L 42.585449 62.000000 L 42.585449 55.984375 L 43.482422 55.984375 L 43.482422 56.500000 Q 43.659668 56.177734 43.925537 56.008545 Q 44.191406 55.839355 44.529785 55.839355 Q 44.937988 55.839355 45.209229 56.027344 Q 45.480469 56.215332 45.630859 56.596680 Z " fill="rgb(0, 0, 0)" fill-opacity="1.000000" />
<path d="M 55.015625 58.498047 L 55.015625 58.981445 L 50.734863 58.981445 L 50.734863 59.013672 Q 50.691895 60.243652 51.204834 60.780762 Q 51.717773 61.317871 52.652344 61.317871 Q 53.125000 61.317871 53.640625 61.167480 Q 54.156250 61.017090 54.741699 60.710938 L 54.741699 61.693848 Q 54.177734 61.924805 53.654053 62.040283 Q 53.130371 62.155762 52.641602 62.155762 Q 51.239746 62.155762 50.450195 61.315186 Q 49.660645 60.474609 49.660645 58.997559 Q 49.660645 57.558105 50.434082 56.698730 Q 51.207520 55.839355 52.496582 55.839355 Q 53.645996 55.839355 54.309326 56.618164 Q 54.972656 57.396973 55.015625 58.498047 Z M 54.027344 58.208008 Q 53.962891 57.584961 53.573486 57.131104 Q 53.184082 56.677246 52.453613 56.677246 Q 51.739258 56.677246 51.277344 57.149902 Q 50.815430 57.622559 50.772461 58.213379 Z " fill="rgb(0, 0, 0)" fill-opacity="1.000000" />
<path d="M 135.878906 65.319336 L 135.878906 51.300781 L 136.738281 51.300781 L 136.738281 65.319336 Z " fill="rgb(0, 0, 0)" fill-opacity="1.000000" />
<path d="M 231.208008 65.319336 L 230.251953 65.319336 L 223.414551 51.300781 L 224.370605 51.300781 Z " fill="rgb(0, 0, 0)" fill-opacity="1.000000" />
<path d="M 233.878906 65.319336 L 233.878906 51.300781 L 234.738281 51.300781 L 234.738281 65.319336 Z " fill="rgb(0, 0, 0)" fill-opacity="1.000000" />
<path d="M 245.547852 58.111328 L 251.241211 58.111328 L 251.241211 59.019043 L 245.547852 59.019043 Z " fill="rgb(0, 0, 0)" fill-opacity="1.000000" />
<path d="M 264.645020 58.272461 L 264.645020 62.000000 L 263.651367 62.000000 L 263.651367 58.272461 Q 263.651367 57.461426 263.366699 57.080078 Q 263.082031 56.698730 262.475098 56.698730 Q 261.782227 56.698730 261.408936 57.190186 Q 261.035645 57.681641 261.035645 58.600098 L 261.035645 62.000000 L 260.047363 62.000000 L 260.047363 55.984375 L 261.035645 55.984375 L 261.035645 56.886719 Q 261.298828 56.371094 261.750000 56.105225 Q 262.201172 55.839355 262.818848 55.839355 Q 263.737305 55.839355 264.191162 56.443604 Q 264.645020 57.047852 264.645020 58.272461 Z " fill="rgb(0, 0, 0)" fill-opacity="1.000000" />
<path d="M 269.770508 58.976074 L 269.442871 58.976074 Q 268.578125 58.976074 268.140381 59.279541 Q 267.702637 59.583008 267.702637 60.184570 Q 267.702637 60.727051 268.030273 61.027832 Q 268.357910 61.328613 268.937988 61.328613 Q 269.754395 61.328613 270.221680 60.761963 Q 270.688965 60.195312 270.694336 59.196289 L 270.694336 58.976074 Z M 271.687988 58.567871 L 271.687988 62.000000 L 270.694336 62.000000 L 270.694336 61.108398 Q 270.377441 61.645508 269.896729 61.900635 Q 269.416016 62.155762 268.728516 62.155762 Q 267.810059 62.155762 267.262207 61.637451 Q 266.714355 61.119141 266.714355 60.249023 Q 266.714355 59.244629 267.388428 58.723633 Q 268.062500 58.202637 269.367676 58.202637 L 270.694336 58.202637 L 270.694336 58.046875 Q 270.688965 57.327148 270.329102 57.002197 Q 269.969238 56.677246 269.179688 56.677246 Q 268.674805 56.677246 268.159180 56.822266 Q 267.643555 56.967285 267.154785 57.246582 L 267.154785 56.258301 Q 267.702637 56.048828 268.204834 55.944092 Q 268.707031 55.839355 269.179688 55.839355 Q 269.926270 55.839355 270.455322 56.059570 Q 270.984375 56.279785 271.312012 56.720215 Q 271.516113 56.988770 271.602051 57.383545 Q 271.687988 57.778320 271.687988 58.567871 Z " fill="rgb(0, 0, 0)" fill-opacity="1.000000" />
<path d="M 276.630859 56.596680 Q 276.813477 56.209961 277.095459 56.024658 Q 277.377441 55.839355 277.774902 55.839355 Q 278.500000 55.839355 278.798096 56.400635 Q 279.096191 56.961914 279.096191 58.514160 L 279.096191 62.000000 L 278.193848 62.000000 L 278.193848 58.557129 Q 278.193848 57.284180 278.051514 56.975342 Q 277.909180 56.666504 277.533203 56.666504 Q 277.103516 56.666504 276.945068 56.996826 Q 276.786621 57.327148 276.786621 58.557129 L 276.786621 62.000000 L 275.884277 62.000000 L 275.884277 58.557129 Q 275.884277 57.268066 275.731201 56.967285 Q 275.578125 56.666504 275.180664 56.666504 Q 274.788574 56.666504 274.635498 56.996826 Q 274.482422 57.327148 274.482422 58.557129 L 274.482422 62.000000 L 273.585449 62.000000 L 273.585449 55.984375 L 274.482422 55.984375 L 274.482422 56.500000 Q 274.659668 56.177734 274.925537 56.008545 Q 275.191406 55.839355 275.529785 55.839355 Q 275.937988 55.839355 276.209229 56.027344 Q 276.480469 56.215332 276.630859 56.596680 Z " fill="rgb(0, 0, 0)" fill-opacity="1.000000" />
<path d="M 286.015625 58.498047 L 286.015625 58.981445 L 281.734863 58.981445 L 281.734863 59.013672 Q 281.691895 60.243652 282.204834 60.780762 Q 282.717773 61.317871 283.652344 61.317871 Q 284.125000 61.317871 284.640625 61.167480 Q 285.156250 61.017090 285.741699 60.710938 L 285.741699 61.693848 Q 285.177734 61.924805 284.654053 62.040283 Q 284.130371 62.155762 283.641602 62.155762 Q 282.239746 62.155762 281.450195 61.315186 Q 280.660645 60.474609 280.660645 58.997559 Q 280.660645 57.558105 281.434082 56.698730 Q 282.207520 55.839355 283.496582 55.839355 Q 284.645996 55.839355 285.309326 56.618164 Q 285.972656 57.396973 286.015625 58.498047 Z M 285.027344 58.208008 Q 284.962891 57.584961 284.573486 57.131104 Q 284.184082 56.677246 283.453613 56.677246 Q 282.739258 56.677246 282.277344 57.149902 Q 281.815430 57.622559 281.772461 58.213379 Z " fill="rgb(0, 0, 0)" fill-opacity="1.000000" />
<path d="M 366.878906 65.319336 L 366.878906 51.300781 L 367.738281 51.300781 L 367.738281 65.319336 Z " fill="rgb(0, 0, 0)" fill-opacity="1.000000" />
<path d="M 370.414551 65.319336 L 377.251953 51.300781 L 378.208008 51.300781 L 371.370605 65.319336 Z " fill="rgb(0, 0, 0)" fill-opacity="1.000000" />
<path d="M 476.208008 65.319336 L 475.251953 65.319336 L 468.414551 51.300781 L 469.370605 51.300781 Z " fill="rgb(0, 0, 0)" fill-opacity="1.000000" />
<path d="M 478.878906 65.319336 L 478.878906 51.300781 L 479.738281 51.300781 L 479.738281 65.319336 Z " fill="rgb(0, 0, 0)" fill-opacity="1.000000" />
<path d="M 490.547852 58.111328 L 496.241211 58.111328 L 496.241211 59.019043 L 490.547852 59.019043 Z " fill="rgb(0, 0, 0)" fill-opacity="1.000000" />
<path d="M 507.297852 54.276367 L 507.297852 55.984375 L 509.542969 55.984375 L 509.542969 56.752441 L 507.297852 56.752441 L 507.297852 60.018066 Q 507.297852 60.684082 507.550293 60.947266 Q 507.802734 61.210449 508.431152 61.210449 L 509.542969 61.210449 L 509.542969 62.000000 L 508.334473 62.000000 Q 507.222656 62.000000 506.766113 61.554199 Q 506.309570 61.108398 506.309570 60.018066 L 506.309570 56.752441 L 504.703613 56.752441 L 504.703613 55.984375 L 506.309570 55.984375 L 506.309570 54.276367 Z " fill="rgb(0, 0, 0)" fill-opacity="1.000000" />
<path d="M 512.697266 56.005859 L 515.227051 56.005859 L 515.227051 61.231934 L 517.187500 61.231934 L 517.187500 62.000000 L 512.278320 62.000000 L 512.278320 61.231934 L 514.238770 61.231934 L 514.238770 56.773926 L 512.697266 56.773926 Z M 514.238770 53.669434 L 515.227051 53.669434 L 515.227051 54.915527 L 514.238770 54.915527 Z " fill="rgb(0, 0, 0)" fill-opacity="1.000000" />
<path d="M 521.297852 54.276367 L 521.297852 55.984375 L 523.542969 55.984375 L 523.542969 56.752441 L 521.297852 56.752441 L 521.297852 60.018066 Q 521.297852 60.684082 521.550293 60.947266 Q 521.802734 61.210449 522.431152 61.210449 L 523.542969 61.210449 L 523.542969 62.000000 L 522.334473 62.000000 Q 521.222656 62.000000 520.766113 61.554199 Q 520.309570 61.108398 520.309570 60.018066 L 520.309570 56.752441 L 518.703613 56.752441 L 518.703613 55.984375 L 520.309570 55.984375 L 520.309570 54.276367 Z " fill="rgb(0, 0, 0)" fill-opacity="1.000000" />
<path d="M 528.861816 59.824707 Q 528.861816 60.490723 529.106201 60.829102 Q 529.350586 61.167480 529.828613 61.167480 L 530.983398 61.167480 L 530.983398 62.000000 L 529.731934 62.000000 Q 528.845703 62.000000 528.359619 61.433350 Q 527.873535 60.866699 527.873535 59.824707 L 527.873535 54.383789 L 526.289062 54.383789 L 526.289062 53.610352 L 528.861816 53.610352 Z " fill="rgb(0, 0, 0)" fill-opacity="1.000000" />
<path d="M 538.015625 58.498047 L 538.015625 58.981445 L 533.734863 58.981445 L 533.734863 59.013672 Q 533.691895 60.243652 534.204834 60.780762 Q 534.717773 61.317871 535.652344 61.317871 Q 536.125000 61.317871 536.640625 61.167480 Q 537.156250 61.017090 537.741699 60.710938 L 537.741699 61.693848 Q 537.177734 61.924805 536.654053 62.040283 Q 536.130371 62.155762 535.641602 62.155762 Q 534.239746 62.155762 533.450195 61.315186 Q 532.660645 60.474609 532.660645 58.997559 Q 532.660645 57.558105 533.434082 56.698730 Q 534.207520 55.839355 535.496582 55.839355 Q 536.645996 55.839355 537.309326 56.618164 Q 537.972656 57.396973 538.015625 58.498047 Z M 537.027344 58.208008 Q 536.962891 57.584961 536.573486 57.131104 Q 536.184082 56.677246 535.453613 56.677246 Q 534.739258 56.677246 534.277344 57.149902 Q 533.815430 57.622559 533.772461 58.213379 Z " fill="rgb(0, 0, 0)" fill-opacity="1.000000" />
<path d="M 611.878906 65.319336 L 611.878906 51.300781 L 612.738281 51.300781 L 612.738281 65.319336 Z " fill="rgb(0, 0, 0)" fill-opacity="1.000000" />
<path d="M 39.608398 43.752441 L 39.608398 40.642578 L 40.596680 40.642578 L 40.596680 49.000000 L 39.608398 49.000000 L 39.608398 48.242676 Q 39.361328 48.688477 38.950439 48.922119 Q 38.539551 49.155762 38.002441 49.155762 Q 36.912109 49.155762 36.286377 48.309814 Q 35.660645 47.463867 35.660645 45.976074 Q 35.660645 44.509766 36.289062 43.674561 Q 36.917480 42.839355 38.002441 42.839355 Q 38.544922 42.839355 38.958496 43.072998 Q 39.372070 43.306641 39.608398 43.752441 Z M 36.702637 45.997559 Q 36.702637 47.146973 37.067871 47.732422 Q 37.433105 48.317871 38.147461 48.317871 Q 38.861816 48.317871 39.235107 47.727051 Q 39.608398 47.136230 39.608398 45.997559 Q 39.608398 44.853516 39.235107 44.265381 Q 38.861816 43.677246 38.147461 43.677246 Q 37.433105 43.677246 37.067871 44.262695 Q 36.702637 44.848145 36.702637 45.997559 Z " fill="rgb(0, 0, 0)" fill-opacity="1.000000" />
<path d="M 135.878906 52.319336 L 135.878906 38.300781 L 136.738281 38.300781 L 136.738281 52.319336 Z " fill="rgb(0, 0, 0)" fill-opacity="1.000000" />
<path d="M 143.738281 46.335938 L 143.738281 52.319336 L 142.878906 52.319336 L 142.878906 46.335938 L 139.892578 46.335938 L 139.892578 45.412109 L 142.878906 45.412109 L 142.878906 38.300781 L 143.738281 38.300781 L 143.738281 45.412109 L 146.729980 45.412109 L 146.729980 46.335938 Z " fill="rgb(0, 0, 0)" fill-opacity="1.000000" />
<path d="M 146.892578 46.335938 L 146.892578 45.412109 L 153.729980 45.412109 L 153.729980 46.335938 Z " fill="rgb(0, 0, 0)" fill-opacity="1.000000" />
<path d="M 153.892578 46.335938 L 153.892578 45.412109 L 160.729980 45.412109 L 160.729980 46.335938 Z " fill="rgb(0, 0, 0)" fill-opacity="1.000000" />
<path d="M 160.892578 46.335938 L 160.892578 45.412109 L 167.729980 45.412109 L 167.729980 46.335938 Z " fill="rgb(0, 0, 0)" fill-opacity="1.000000" />
<path d="M 167.892578 46.335938 L 167.892578 45.412109 L 174.729980 45.412109 L 174.729980 46.335938 Z " fill="rgb(0, 0, 0)" fill-opacity="1.000000" />
<path d="M 174.892578 46.335938 L 174.892578 45.412109 L 181.729980 45.412109 L 181.729980 46.335938 Z " fill="rgb(0, 0, 0)" fill-opacity="1.000000" />
<path d="M 181.892578 46.335938 L 181.892578 45.412109 L 188.729980 45.412109 L 188.729980 46.335938 Z " fill="rgb(0, 0, 0)" fill-opacity="1.000000" />
<path d="M 188.892578 46.335938 L 188.892578 45.412109 L 195.729980 45.412109 L 195.729980 46.335938 Z " fill="rgb(0, 0, 0)" fill-opacity="1.000000" />
<path d="M 195.892578 46.335938 L 195.892578 45.412109 L 202.729980 45.412109 L 202.729980 46.335938 Z " fill="rgb(0, 0, 0)" fill-opacity="1.000000" />
<path d="M 202.892578 46.335938 L 202.892578 45.412109 L 209.729980 45.412109 L 209.729980 46.335938 Z " fill="rgb(0, 0, 0)" fill-opacity="1.000000" />
<path d="M 209.892578 46.335938 L 209.892578 45.412109 L 216.729980 45.412109 L 216.729980 46.335938 Z " fill="rgb(0, 0, 0)" fill-opacity="1.000000" />
<path d="M 216.892578 46.335938 L 216.892578 45.412109 L 223.729980 45.412109 L 223.729980 46.335938 Z " fill="rgb(0, 0, 0)" fill-opacity="1.000000" />
<path d="M 223.892578 46.335938 L 223.892578 45.412109 L 230.729980 45.412109 L 230.729980 46.335938 Z " fill="rgb(0, 0, 0)" fill-opacity="1.000000" />
<path d="M 233.878906 52.319336 L 233.878906 38.300781 L 234.738281 38.300781 L 234.738281 52.319336 Z " fill="rgb(0, 0, 0)" fill-opacity="1.000000" />
<path d="M 245.547852 45.111328 L 251.241211 45.111328 L 251.241211 46.019043 L 245.547852 46.019043 Z " fill="rgb(0, 0, 0)" fill-opacity="1.000000" />
<path d="M 260.697266 43.005859 L 263.227051 43.005859 L 263.227051 48.231934 L 265.187500 48.231934 L 265.187500 49.000000 L 260.278320 49.000000 L 260.278320 48.231934 L 262.238770 48.231934 L 262.238770 43.773926 L 260.697266 43.773926 Z M 262.238770 40.669434 L 263.227051 40.669434 L 263.227051 41.915527 L 262.238770 41.915527 Z " fill="rgb(0, 0, 0)" fill-opacity="1.000000" />
<path d="M 270.608398 43.752441 L 270.608398 40.642578 L 271.596680 40.642578 L 271.596680 49.000000 L 270.608398 49.000000 L 270.608398 48.242676 Q 270.361328 48.688477 269.950439 48.922119 Q 269.539551 49.155762 269.002441 49.155762 Q 267.912109 49.155762 267.286377 48.309814 Q 266.660645 47.463867 266.660645 45.976074 Q 266.660645 44.509766 267.289062 43.674561 Q 267.917480 42.839355 269.002441 42.839355 Q 269.544922 42.839355 269.958496 43.072998 Q 270.372070 43.306641 270.608398 43.752441 Z M 267.702637 45.997559 Q 267.702637 47.146973 268.067871 47.732422 Q 268.433105 48.317871 269.147461 48.317871 Q 269.861816 48.317871 270.235107 47.727051 Q 270.608398 47.136230 270.608398 45.997559 Q 270.608398 44.853516 270.235107 44.265381 Q 269.861816 43.677246 269.147461 43.677246 Q 268.433105 43.677246 268.067871 44.262695 Q 267.702637 44.848145 267.702637 45.997559 Z " fill="rgb(0, 0, 0)" fill-opacity="1.000000" />
<path d="M 366.878906 52.319336 L 366.878906 38.300781 L 367.738281 38.300781 L 367.738281 52.319336 Z " fill="rgb(0, 0, 0)" fill-opacity="1.000000" />
<path d="M 370.892578 46.335938 L 370.892578 45.412109 L 377.729980 45.412109 L 377.729980 46.335938 Z " fill="rgb(0, 0, 0)" fill-opacity="1.000000" />
<path d="M 377.892578 46.335938 L 377.892578 45.412109 L 384.729980 45.412109 L 384.729980 46.335938 Z " fill="rgb(0, 0, 0)" fill-opacity="1.000000" />
<path d="M 384.892578 46.335938 L 384.892578 45.412109 L 391.729980 45.412109 L 391.729980 46.335938 Z " fill="rgb(0, 0, 0)" fill-opacity="1.000000" />
<path d="M 391.892578 46.335938 L 391.892578 45.412109 L 398.729980 45.412109 L 398.729980 46.335938 Z " fill="rgb(0, 0, 0)" fill-opacity="1.000000" />
<path d="M 398.892578 46.335938 L 398.892578 45.412109 L 405.729980 45.412109 L 405.729980 46.335938 Z " fill="rgb(0, 0, 0)" fill-opacity="1.000000" />
<path d="M 405.892578 46.335938 L 405.892578 45.412109 L 412.729980 45.412109 L 412.729980 46.335938 Z " fill="rgb(0, 0, 0)" fill-opacity="1.000000" />
<path d="M 412.892578 46.335938 L 412.892578 45.412109 L 419.729980 45.412109 L 419.729980 46.335938 Z " fill="rgb(0, 0, 0)" fill-opacity="1.000000" />
<path d="M 419.892578 46.335938 L 419.892578 45.412109 L 426.729980 45.412109 L 426.729980 46.335938 Z " fill="rgb(0, 0, 0)" fill-opacity="1.000000" />
<path d="M 426.892578 46.335938 L 426.892578 45.412109 L 433.729980 45.412109 L 433.729980 46.335938 Z " fill="rgb(0, 0, 0)" fill-opacity="1.000000" />
<path d="M 433.892578 46.335938 L 433.892578 45.412109 L 440.729980 45.412109 L 440.729980 46.335938 Z " fill="rgb(0, 0, 0)" fill-opacity="1.000000" />
<path d="M 440.892578 46.335938 L 440.892578 45.412109 L 447.729980 45.412109 L 447.729980 46.335938 Z " fill="rgb(0, 0, 0)" fill-opacity="1.000000" />
<path d="M 447.892578 46.335938 L 447.892578 45.412109 L 454.729980 45.412109 L 454.729980 46.335938 Z " fill="rgb(0, 0, 0)" fill-opacity="1.000000" />
<path d="M 454.892578 46.335938 L 454.892578 45.412109 L 461.729980 45.412109 L 461.729980 46.335938 Z " fill="rgb(0, 0, 0)" fill-opacity="1.000000" />
<path d="M 461.892578 46.335938 L 461.892578 45.412109 L 468.729980 45.412109 L 468.729980 46.335938 Z " fill="rgb(0, 0, 0)" fill-opacity="1.000000" />
<path d="M 468.892578 46.335938 L 468.892578 45.412109 L 475.729980 45.412109 L 475.729980 46.335938 Z " fill="rgb(0, 0, 0)" fill-opacity="1.000000" />
<path d="M 478.878906 52.319336 L 478.878906 38.300781 L 479.738281 38.300781 L 479.738281 52.319336 Z " fill="rgb(0, 0, 0)" fill-opacity="1.000000" />
<path d="M 490.547852 45.111328 L 496.241211 45.111328 L 496.241211 46.019043 L 490.547852 46.019043 Z " fill="rgb(0, 0, 0)" fill-opacity="1.000000" />
<path d="M 505.697266 43.005859 L 508.227051 43.005859 L 508.227051 48.231934 L 510.187500 48.231934 L 510.187500 49.000000 L 505.278320 49.000000 L 505.278320 48.231934 L 507.238770 48.231934 L 507.238770 43.773926 L 505.697266 43.773926 Z M 507.238770 40.669434 L 508.227051 40.669434 L 508.227051 41.915527 L 507.238770 41.915527 Z " fill="rgb(0, 0, 0)" fill-opacity="1.000000" />
<path d="M 515.608398 43.752441 L 515.608398 40.642578 L 516.596680 40.642578 L 516.596680 49.000000 L 515.608398 49.000000 L 515.608398 48.242676 Q 515.361328 48.688477 514.950439 48.922119 Q 514.539551 49.155762 514.002441 49.155762 Q 512.912109 49.155762 512.286377 48.309814 Q 511.660645 47.463867 511.660645 45.976074 Q 511.660645 44.509766 512.289062 43.674561 Q 512.917480 42.839355 514.002441 42.839355 Q 514.544922 42.839355 514.958496 43.072998 Q 515.372070 43.306641 515.608398 43.752441 Z M 512.702637 45.997559 Q 512.702637 47.146973 513.067871 47.732422 Q 513.433105 48.317871 514.147461 48.317871 Q 514.861816 48.317871 515.235107 47.727051 Q 515.608398 47.136230 515.608398 45.997559 Q 515.608398 44.853516 515.235107 44.265381 Q 514.861816 43.677246 514.147461 43.677246 Q 513.433105 43.677246 513.067871 44.262695 Q 512.702637 44.848145 512.702637 45.997559 Z " fill="rgb(0, 0, 0)" fill-opacity="1.000000" />
<path d="M 611.878906 52.319336 L 611.878906 38.300781 L 612.738281 38.300781 L 612.738281 52.319336 Z " fill="rgb(0, 0, 0)" fill-opacity="1.000000" />
<path d="M 135.878906 39.319336 L 135.878906 25.300781 L 136.738281 25.300781 L 136.738281 39.319336 Z " fill="rgb(0, 0, 0)" fill-opacity="1.000000" />
<path d="M 223.414551 39.319336 L 230.251953 25.300781 L 231.208008 25.300781 L 224.370605 39.319336 Z " fill="rgb(0, 0, 0)" fill-opacity="1.000000" />
<path d="M 233.878906 39.319336 L 233.878906 25.300781 L 234.738281 25.300781 L 234.738281 39.319336 Z " fill="rgb(0, 0, 0)" fill-opacity="1.000000" />
<path d="M 366.878906 39.319336 L 366.878906 25.300781 L 367.738281 25.300781 L 367.738281 39.319336 Z " fill="rgb(0, 0, 0)" fill-opacity="1.000000" />
<path d="M 378.208008 39.319336 L 377.251953 39.319336 L 370.414551 25.300781 L 371.370605 25.300781 Z " fill="rgb(0, 0, 0)" fill-opacity="1.000000" />
<path d="M 468.414551 39.319336 L 475.251953 25.300781 L 476.208008 25.300781 L 469.370605 39.319336 Z " fill="rgb(0, 0, 0)" fill-opacity="1.000000" />
<path d="M 478.878906 39.319336 L 478.878906 25.300781 L 479.738281 25.300781 L 479.738281 39.319336 Z " fill="rgb(0, 0, 0)" fill-opacity="1.000000" />
<path d="M 611.878906 39.319336 L 611.878906 25.300781 L 612.738281 25.300781 L 612.738281 39.319336 Z " fill="rgb(0, 0, 0)" fill-opacity="1.000000" />
<path d="M 25.608398 19.943848 Q 25.608398 18.832031 25.245850 18.254639 Q 24.883301 17.677246 24.190430 17.677246 Q 23.465332 17.677246 23.083984 18.254639 Q 22.702637 18.832031 22.702637 19.943848 Q 22.702637 21.055664 23.086670 21.638428 Q 23.470703 22.221191 24.201172 22.221191 Q 24.883301 22.221191 25.245850 21.635742 Q 25.608398 21.050293 25.608398 19.943848 Z M 26.596680 22.613281 Q 26.596680 23.966797 25.957520 24.665039 Q 25.318359 25.363281 24.077637 25.363281 Q 23.669434 25.363281 23.223633 25.288086 Q 22.777832 25.212891 22.332031 25.067871 L 22.332031 24.090332 Q 22.858398 24.337402 23.288086 24.455566 Q 23.717773 24.573730 24.077637 24.573730 Q 24.877930 24.573730 25.243164 24.138672 Q 25.608398 23.703613 25.608398 22.758301 L 25.608398 22.715332 L 25.608398 22.043945 Q 25.372070 22.548828 24.963867 22.795898 Q 24.555664 23.042969 23.970215 23.042969 Q 22.917480 23.042969 22.289062 22.199707 Q 21.660645 21.356445 21.660645 19.943848 Q 21.660645 18.525879 22.289062 17.682617 Q 22.917480 16.839355 23.970215 16.839355 Q 24.550293 16.839355 24.953125 17.070312 Q 25.355957 17.301270 25.608398 17.784668 L 25.608398 17.005859 L 26.596680 17.005859 Z " fill="rgb(0, 0, 0)" fill-opacity="1.000000" />
<path d="M 34.015625 19.498047 L 34.015625 19.981445 L 29.734863 19.981445 L 29.734863 20.013672 Q 29.691895 21.243652 30.204834 21.780762 Q 30.717773 22.317871 31.652344 22.317871 Q 32.125000 22.317871 32.640625 22.167480 Q 33.156250 22.017090 33.741699 21.710938 L 33.741699 22.693848 Q 33.177734 22.924805 32.654053 23.040283 Q 32.130371 23.155762 31.641602 23.155762 Q 30.239746 23.155762 29.450195 22.315186 Q 28.660645 21.474609 28.660645 19.997559 Q 28.660645 18.558105 29.434082 17.698730 Q 30.207520 16.839355 31.496582 16.839355 Q 32.645996 16.839355 33.309326 17.618164 Q 33.972656 18.396973 34.015625 19.498047 Z M 33.027344 19.208008 Q 32.962891 18.584961 32.573486 18.131104 Q 32.184082 17.677246 31.453613 17.677246 Q 30.739258 17.677246 30.277344 18.149902 Q 29.815430 18.622559 29.772461 19.213379 Z " fill="rgb(0, 0, 0)" fill-opacity="1.000000" />
<path d="M 40.645020 19.272461 L 40.645020 23.000000 L 39.651367 23.000000 L 39.651367 19.272461 Q 39.651367 18.461426 39.366699 18.080078 Q 39.082031 17.698730 38.475098 17.698730 Q 37.782227 17.698730 37.408936 18.190186 Q 37.035645 18.681641 37.035645 19.600098 L 37.035645 23.000000 L 36.047363 23.000000 L 36.047363 16.984375 L 37.035645 16.984375 L 37.035645 17.886719 Q 37.298828 17.371094 37.750000 17.105225 Q 38.201172 16.839355 38.818848 16.839355 Q 39.737305 16.839355 40.191162 17.443604 Q 40.645020 18.047852 40.645020 19.272461 Z " fill="rgb(0, 0, 0)" fill-opacity="1.000000" />
<path d="M 45.297852 15.276367 L 45.297852 16.984375 L 47.542969 16.984375 L 47.542969 17.752441 L 45.297852 17.752441 L 45.297852 21.018066 Q 45.297852 21.684082 45.550293 21.947266 Q 45.802734 22.210449 46.431152 22.210449 L 47.542969 22.210449 L 47.542969 23.000000 L 46.334473 23.000000 Q 45.222656 23.000000 44.766113 22.554199 Q 44.309570 22.108398 44.309570 21.018066 L 44.309570 17.752441 L 42.703613 17.752441 L 42.703613 16.984375 L 44.309570 16.984375 L 44.309570 15.276367 Z " fill="rgb(0, 0, 0)" fill-opacity="1.000000" />
<path d="M 135.878906 26.319336 L 135.878906 12.300781 L 136.738281 12.300781 L 136.738281 26.319336 Z " fill="rgb(0, 0, 0)" fill-opacity="1.000000" />
<path d="M 233.878906 26.319336 L 233.878906 12.300781 L 234.738281 12.300781 L 234.738281 26.319336 Z " fill="rgb(0, 0, 0)" fill-opacity="1.000000" />
<path d="M 248.308594 15.937012 L 247.164551 20.040527 L 249.452637 20.040527 Z M 247.653320 14.980957 L 248.969238 14.980957 L 251.423828 23.000000 L 250.301270 23.000000 L 249.710449 20.910645 L 246.901367 20.910645 L 246.321289 23.000000 L 245.198730 23.000000 Z " fill="rgb(0, 0, 0)" fill-opacity="1.000000" />
<path d="M 253.047363 20.722656 L 253.047363 16.995117 L 254.035645 16.995117 L 254.035645 20.722656 Q 254.035645 21.533691 254.322998 21.915039 Q 254.610352 22.296387 255.211914 22.296387 Q 255.910156 22.296387 256.280762 21.804932 Q 256.651367 21.313477 256.651367 20.395020 L 256.651367 16.995117 L 257.645020 16.995117 L 257.645020 23.000000 L 256.651367 23.000000 L 256.651367 22.097656 Q 256.388184 22.618652 255.934326 22.887207 Q 255.480469 23.155762 254.873535 23.155762 Q 253.949707 23.155762 253.498535 22.551514 Q 253.047363 21.947266 253.047363 20.722656 Z " fill="rgb(0, 0, 0)" fill-opacity="1.000000" />
<path d="M 262.297852 15.276367 L 262.297852 16.984375 L 264.542969 16.984375 L 264.542969 17.752441 L 262.297852 17.752441 L 262.297852 21.018066 Q 262.297852 21.684082 262.550293 21.947266 Q 262.802734 22.210449 263.431152 22.210449 L 264.542969 22.210449 L 264.542969 23.000000 L 263.334473 23.000000 Q 262.222656 23.000000 261.766113 22.554199 Q 261.309570 22.108398 261.309570 21.018066 L 261.309570 17.752441 L 259.703613 17.752441 L 259.703613 16.984375 L 261.309570 16.984375 L 261.309570 15.276367 Z " fill="rgb(0, 0, 0)" fill-opacity="1.000000" />
<path d="M 271.645020 19.272461 L 271.645020 23.000000 L 270.651367 23.000000 L 270.651367 19.272461 Q 270.651367 18.461426 270.366699 18.080078 Q 270.082031 17.698730 269.475098 17.698730 Q 268.782227 17.698730 268.408936 18.190186 Q 268.035645 18.681641 268.035645 19.600098 L 268.035645 23.000000 L 267.047363 23.000000 L 267.047363 14.642578 L 268.035645 14.642578 L 268.035645 17.886719 Q 268.298828 17.371094 268.750000 17.105225 Q 269.201172 16.839355 269.818848 16.839355 Q 270.737305 16.839355 271.191162 17.443604 Q 271.645020 18.047852 271.645020 19.272461 Z " fill="rgb(0, 0, 0)" fill-opacity="1.000000" />
<path d="M 276.308594 17.677246 Q 275.556641 17.677246 275.169922 18.262695 Q 274.783203 18.848145 274.783203 19.997559 Q 274.783203 21.141602 275.169922 21.729736 Q 275.556641 22.317871 276.308594 22.317871 Q 277.065918 22.317871 277.452637 21.729736 Q 277.839355 21.141602 277.839355 19.997559 Q 277.839355 18.848145 277.452637 18.262695 Q 277.065918 17.677246 276.308594 17.677246 Z M 276.308594 16.839355 Q 277.560059 16.839355 278.223389 17.650391 Q 278.886719 18.461426 278.886719 19.997559 Q 278.886719 21.539062 278.226074 22.347412 Q 277.565430 23.155762 276.308594 23.155762 Q 275.057129 23.155762 274.396484 22.347412 Q 273.735840 21.539062 273.735840 19.997559 Q 273.735840 18.461426 274.396484 17.650391 Q 275.057129 16.839355 276.308594 16.839355 Z " fill="rgb(0, 0, 0)" fill-opacity="1.000000" />
<path d="M 286.203613 18.225098 Q 285.886719 17.978027 285.559082 17.865234 Q 285.231445 17.752441 284.839355 17.752441 Q 283.915527 17.752441 283.426758 18.332520 Q 282.937988 18.912598 282.937988 20.008301 L 282.937988 23.000000 L 281.944336 23.000000 L 281.944336 16.984375 L 282.937988 16.984375 L 282.937988 18.160645 Q 283.185059 17.521484 283.697998 17.180420 Q 284.210938 16.839355 284.914551 16.839355 Q 285.279785 16.839355 285.596680 16.930664 Q 285.913574 17.021973 286.203613 17.215332 Z " fill="rgb(0, 0, 0)" fill-opacity="1.000000" />
<path d="M 366.878906 26.319336 L 366.878906 12.300781 L 367.738281 12.300781 L 367.738281 26.319336 Z " fill="rgb(0, 0, 0)" fill-opacity="1.000000" />
<path d="M 478.878906 26.319336 L 478.878906 12.300781 L 479.738281 12.300781 L 479.738281 26.319336 Z " fill="rgb(0, 0, 0)" fill-opacity="1.000000" />
<path d="M 491.981934 18.955566 L 491.981934 22.108398 L 493.265625 22.108398 Q 494.210938 22.108398 494.613770 21.778076 Q 495.016602 21.447754 495.016602 20.690430 Q 495.016602 19.691406 494.592285 19.323486 Q 494.167969 18.955566 493.265625 18.955566 Z M 491.981934 15.872559 L 491.981934 18.074707 L 493.244141 18.074707 Q 494.028320 18.074707 494.380127 17.773926 Q 494.731934 17.473145 494.731934 17.016602 Q 494.731934 16.409668 494.385498 16.141113 Q 494.039062 15.872559 493.244141 15.872559 Z M 490.891602 14.980957 L 493.265625 14.980957 Q 494.495605 14.980957 495.161621 15.512695 Q 495.827637 16.044434 495.827637 17.016602 Q 495.827637 17.537598 495.475830 17.961914 Q 495.124023 18.386230 494.420410 18.493652 Q 495.209961 18.611816 495.658447 19.167725 Q 496.106934 19.723633 496.106934 20.797852 Q 496.106934 21.888184 495.392578 22.444092 Q 494.678223 23.000000 493.265625 23.000000 L 490.891602 23.000000 Z " fill="rgb(0, 0, 0)" fill-opacity="1.000000" />
<path d="M 500.308594 17.677246 Q 499.556641 17.677246 499.169922 18.262695 Q 498.783203 18.848145 498.783203 19.997559 Q 498.783203 21.141602 499.169922 21.729736 Q 499.556641 22.317871 500.308594 22.317871 Q 501.065918 22.317871 501.452637 21.729736 Q 501.839355 21.141602 501.839355 19.997559 Q 501.839355 18.848145 501.452637 18.262695 Q 501.065918 17.677246 500.308594 17.677246 Z M 500.308594 16.839355 Q 501.560059 16.839355 502.223389 17.650391 Q 502.886719 18.461426 502.886719 19.997559 Q 502.886719 21.539062 502.226074 22.347412 Q 501.565430 23.155762 500.308594 23.155762 Q 499.057129 23.155762 498.396484 22.347412 Q 497.735840 21.539062 497.735840 19.997559 Q 497.735840 18.461426 498.396484 17.650391 Q 499.057129 16.839355 500.308594 16.839355 Z " fill="rgb(0, 0, 0)" fill-opacity="1.000000" />
<path d="M 507.308594 17.677246 Q 506.556641 17.677246 506.169922 18.262695 Q 505.783203 18.848145 505.783203 19.997559 Q 505.783203 21.141602 506.169922 21.729736 Q 506.556641 22.317871 507.308594 22.317871 Q 508.065918 22.317871 508.452637 21.729736 Q 508.839355 21.141602 508.839355 19.997559 Q 508.839355 18.848145 508.452637 18.262695 Q 508.065918 17.677246 507.308594 17.677246 Z M 507.308594 16.839355 Q 508.560059 16.839355 509.223389 17.650391 Q 509.886719 18.461426 509.886719 19.997559 Q 509.886719 21.539062 509.226074 22.347412 Q 508.565430 23.155762 507.308594 23.155762 Q 506.057129 23.155762 505.396484 22.347412 Q 504.735840 21.539062 504.735840 19.997559 Q 504.735840 18.461426 505.396484 17.650391 Q 506.057129 16.839355 507.308594 16.839355 Z " fill="rgb(0, 0, 0)" fill-opacity="1.000000" />
<path d="M 512.267578 14.642578 L 513.288086 14.642578 L 513.288086 19.481934 L 515.882324 16.984375 L 517.085449 16.984375 L 514.716797 19.250977 L 517.456055 23.000000 L 516.247559 23.000000 L 514.023926 19.895508 L 513.288086 20.588379 L 513.288086 23.000000 L 512.267578 23.000000 Z " fill="rgb(0, 0, 0)" fill-opacity="1.000000" />
<path d="M 611.878906 26.319336 L 611.878906 12.300781 L 612.738281 12.300781 L 612.738281 26.319336 Z " fill="rgb(0, 0, 0)" fill-opacity="1.000000" />
<path d="M 6.892578 7.335938 L 6.892578 6.412109 L 13.729980 6.412109 L 13.729980 7.335938 Z " fill="rgb(0, 0, 0)" fill-opacity="1.000000" />
<path d="M 13.892578 7.335938 L 13.892578 6.412109 L 20.729980 6.412109 L 20.729980 7.335938 Z " fill="rgb(0, 0, 0)" fill-opacity="1.000000" />
<path d="M 20.892578 7.335938 L 20.892578 6.412109 L 27.729980 6.412109 L 27.729980 7.335938 Z " fill="rgb(0, 0, 0)" fill-opacity="1.000000" />
<path d="M 27.892578 7.335938 L 27.892578 6.412109 L 34.729980 6.412109 L 34.729980 7.335938 Z " fill="rgb(0, 0, 0)" fill-opacity="1.000000" />
<path d="M 34.892578 7.335938 L 34.892578 6.412109 L 41.729980 6.412109 L 41.729980 7.335938 Z " fill="rgb(0, 0, 0)" fill-opacity="1.000000" />
<path d="M 41.892578 7.335938 L 41.892578 6.412109 L 48.729980 6.412109 L 48.729980 7.335938 Z " fill="rgb(0, 0, 0)" fill-opacity="1.000000" />
<path d="M 48.892578 7.335938 L 48.892578 6.412109 L 55.729980 6.412109 L 55.729980 7.335938 Z " fill="rgb(0, 0, 0)" fill-opacity="1.000000" />
<path d="M 55.892578 7.335938 L 55.892578 6.412109 L 62.729980 6.412109 L 62.729980 7.335938 Z " fill="rgb(0, 0, 0)" fill-opacity="1.000000" />
<path d="M 62.892578 7.335938 L 62.892578 6.412109 L 69.729980 6.412109 L 69.729980 7.335938 Z " fill="rgb(0, 0, 0)" fill-opacity="1.000000" />
<path d="M 69.892578 7.335938 L 69.892578 6.412109 L 76.729980 6.412109 L 76.729980 7.335938 Z " fill="rgb(0, 0, 0)" fill-opacity="1.000000" />
<path d="M 76.892578 7.335938 L 76.892578 6.412109 L 83.729980 6.412109 L 83.729980 7.335938 Z " fill="rgb(0, 0, 0)" fill-opacity="1.000000" />
<path d="M 83.892578 7.335938 L 83.892578 6.412109 L 90.729980 6.412109 L 90.729980 7.335938 Z " fill="rgb(0, 0, 0)" fill-opacity="1.000000" />
<path d="M 90.892578 7.335938 L 90.892578 6.412109 L 97.729980 6.412109 L 97.729980 7.335938 Z " fill="rgb(0, 0, 0)" fill-opacity="1.000000" />
<path d="M 97.892578 7.335938 L 97.892578 6.412109 L 104.729980 6.412109 L 104.729980 7.335938 Z " fill="rgb(0, 0, 0)" fill-opacity="1.000000" />
<path d="M 104.892578 7.335938 L 104.892578 6.412109 L 111.729980 6.412109 L 111.729980 7.335938 Z " fill="rgb(0, 0, 0)" fill-opacity="1.000000" />
<path d="M 111.892578 7.335938 L 111.892578 6.412109 L 118.729980 6.412109 L 118.729980 7.335938 Z " fill="rgb(0, 0, 0)" fill-opacity="1.000000" />
<path d="M 118.892578 7.335938 L 118.892578 6.412109 L 125.729980 6.412109 L 125.729980 7.335938 Z " fill="rgb(0, 0, 0)" fill-opacity="1.000000" />
<path d="M 125.892578 7.335938 L 125.892578 6.412109 L 132.729980 6.412109 L 132.729980 7.335938 Z " fill="rgb(0, 0, 0)" fill-opacity="1.000000" />
<path d="M 135.878906 13.319336 L 135.878906 7.335938 L 132.892578 7.335938 L 132.892578 6.412109 L 136.738281 6.412109 L 136.738281 13.319336 Z " fill="rgb(0, 0, 0)" fill-opacity="1.000000" />
<path d="M 233.878906 13.319336 L 233.878906 6.412109 L 237.729980 6.412109 L 237.729980 7.335938 L 234.738281 7.335938 L 234.738281 13.319336 Z " fill="rgb(0, 0, 0)" fill-opacity="1.000000" />
<path d="M 237.892578 7.335938 L 237.892578 6.412109 L 244.729980 6.412109 L 244.729980 7.335938 Z " fill="rgb(0, 0, 0)" fill-opacity="1.000000" />
<path d="M 244.892578 7.335938 L 244.892578 6.412109 L 251.729980 6.412109 L 251.729980 7.335938 Z " fill="rgb(0, 0, 0)" fill-opacity="1.000000" />
<path d="M 251.892578 7.335938 L 251.892578 6.412109 L 258.729980 6.412109 L 258.729980 7.335938 Z " fill="rgb(0, 0, 0)" fill-opacity="1.000000" />
<path d="M 258.892578 7.335938 L 258.892578 6.412109 L 265.729980 6.412109 L 265.729980 7.335938 Z " fill="rgb(0, 0, 0)" fill-opacity="1.000000" />
<path d="M 265.892578 7.335938 L 265.892578 6.412109 L 272.729980 6.412109 L 272.729980 7.335938 Z " fill="rgb(0, 0, 0)" fill-opacity="1.000000" />
<path d="M 272.892578 7.335938 L 272.892578 6.412109 L 279.729980 6.412109 L 279.729980 7.335938 Z " fill="rgb(0, 0, 0)" fill-opacity="1.000000" />
<path d="M 279.892578 7.335938 L 279.892578 6.412109 L 286.729980 6.412109 L 286.729980 7.335938 Z " fill="rgb(0, 0, 0)" fill-opacity="1.000000" />
<path d="M 286.892578 7.335938 L 286.892578 6.412109 L 293.729980 6.412109 L 293.729980 7.335938 Z " fill="rgb(0, 0, 0)" fill-opacity="1.000000" />
<path d="M 293.892578 7.335938 L 293.892578 6.412109 L 300.729980 6.412109 L 300.729980 7.335938 Z " fill="rgb(0, 0, 0)" fill-opacity="1.000000" />
<path d="M 300.892578 7.335938 L 300.892578 6.412109 L 307.729980 6.412109 L 307.729980 7.335938 Z " fill="rgb(0, 0, 0)" fill-opacity="1.000000" />
<path d="M 307.892578 7.335938 L 307.892578 6.412109 L 314.729980 6.412109 L 314.729980 7.335938 Z " fill="rgb(0, 0, 0)" fill-opacity="1.000000" />
<path d="M 314.892578 7.335938 L 314.892578 6.412109 L 321.729980 6.412109 L 321.729980 7.335938 Z " fill="rgb(0, 0, 0)" fill-opacity="1.000000" />
<path d="M 321.892578 7.335938 L 321.892578 6.412109 L 328.729980 6.412109 L 328.729980 7.335938 Z " fill="rgb(0, 0, 0)" fill-opacity="1.000000" />
<path d="M 328.892578 7.335938 L 328.892578 6.412109 L 335.729980 6.412109 L 335.729980 7.335938 Z " fill="rgb(0, 0, 0)" fill-opacity="1.000000" />
<path d="M 335.892578 7.335938 L 335.892578 6.412109 L 342.729980 6.412109 L 342.729980 7.335938 Z " fill="rgb(0, 0, 0)" fill-opacity="1.000000" />
<path d="M 342.892578 7.335938 L 342.892578 6.412109 L 349.729980 6.412109 L 349.729980 7.335938 Z " fill="rgb(0, 0, 0)" fill-opacity="1.000000" />
<path d="M 349.892578 7.335938 L 349.892578 6.412109 L 356.729980 6.412109 L 356.729980 7.335938 Z " fill="rgb(0, 0, 0)" fill-opacity="1.000000" />
<path d="M 356.892578 7.335938 L 356.892578 6.412109 L 363.729980 6.412109 L 363.729980 7.335938 Z " fill="rgb(0, 0, 0)" fill-opacity="1.000000" />
<path d="M 366.878906 13.319336 L 366.878906 7.335938 L 363.892578 7.335938 L 363.892578 6.412109 L 367.738281 6.412109 L 367.738281 13.319336 Z " fill="rgb(0, 0, 0)" fill-opacity="1.000000" />
<path d="M 478.878906 13.319336 L 478.878906 6.412109 L 482.729980 6.412109 L 482.729980 7.335938 L 479.738281 7.335938 L 479.738281 13.319336 Z " fill="rgb(0, 0, 0)" fill-opacity="1.000000" />
<path d="M 482.892578 7.335938 L 482.892578 6.412109 L 489.729980 6.412109 L 489.729980 7.335938 Z " fill="rgb(0, 0, 0)" fill-opacity="1.000000" />
<path d="M 489.892578 7.335938 L 489.892578 6.412109 L 496.729980 6.412109 L 496.729980 7.335938 Z " fill="rgb(0, 0, 0)" fill-opacity="1.000000" />
<path d="M 496.892578 7.335938 L 496.892578 6.412109 L 503.729980 6.412109 L 503.729980 7.335938 Z " fill="rgb(0, 0, 0)" fill-opacity="1.000000" />
<path d="M 503.892578 7.335938 L 503.892578 6.412109 L 510.729980 6.412109 L 510.729980 7.335938 Z " fill="rgb(0, 0, 0)" fill-opacity="1.000000" />
<path d="M 510.892578 7.335938 L 510.892578 6.412109 L 517.729980 6.412109 L 517.729980 7.335938 Z " fill="rgb(0, 0, 0)" fill-opacity="1.000000" />
<path d="M 517.892578 7.335938 L 517.892578 6.412109 L 524.729980 6.412109 L 524.729980 7.335938 Z " fill="rgb(0, 0, 0)" fill-opacity="1.000000" />
<path d="M 524.892578 7.335938 L 524.892578 6.412109 L 531.729980 6.412109 L 531.729980 7.335938 Z " fill="rgb(0, 0, 0)" fill-opacity="1.000000" />
<path d="M 531.892578 7.335938 L 531.892578 6.412109 L 538.729980 6.412109 L 538.729980 7.335938 Z " fill="rgb(0, 0, 0)" fill-opacity="1.000000" />
<path d="M 538.892578 7.335938 L 538.892578 6.412109 L 545.729980 6.412109 L 545.729980 7.335938 Z " fill="rgb(0, 0, 0)" fill-opacity="1.000000" />
<path d="M 545.892578 7.335938 L 545.892578 6.412109 L 552.729980 6.412109 L 552.729980 7.335938 Z " fill="rgb(0, 0, 0)" fill-opacity="1.000000" />
<path d="M 552.892578 7.335938 L 552.892578 6.412109 L 559.729980 6.412109 L 559.729980 7.335938 Z " fill="rgb(0, 0, 0)" fill-opacity="1.000000" />
<path d="M 559.892578 7.335938 L 559.892578 6.412109 L 566.729980 6.412109 L 566.729980 7.335938 Z " fill="rgb(0, 0, 0)" fill-opacity="1.000000" />
<path d="M 566.892578 7.335938 L 566.892578 6.412109 L 573.729980 6.412109 L 573.729980 7.335938 Z " fill="rgb(0, 0, 0)" fill-opacity="1.000000" />
<path d="M 573.892578 7.335938 L 573.892578 6.412109 L 580.729980 6.412109 L 580.729980 7.335938 Z " fill="rgb(0, 0, 0)" fill-opacity="1.000000" />
<path d="M 580.892578 7.335938 L 580.892578 6.412109 L 587.729980 6.412109 L 587.729980 7.335938 Z " fill="rgb(0, 0, 0)" fill-opacity="1.000000" />
<path d="M 587.892578 7.335938 L 587.892578 6.412109 L 594.729980 6.412109 L 594.729980 7.335938 Z " fill="rgb(0, 0, 0)" fill-opacity="1.000000" />
<path d="M 594.892578 7.335938 L 594.892578 6.412109 L 601.729980 6.412109 L 601.729980 7.335938 Z " fill="rgb(0, 0, 0)" fill-opacity="1.000000" />
<path d="M 601.892578 7.335938 L 601.892578 6.412109 L 608.729980 6.412109 L 608.729980 7.335938 Z " fill="rgb(0, 0, 0)" fill-opacity="1.000000" />
<path d="M 611.878906 13.319336 L 611.878906 7.335938 L 608.892578 7.335938 L 608.892578 6.412109 L 612.738281 6.412109 L 612.738281 13.319336 Z " fill="rgb(0, 0, 0)" fill-opacity="1.000000" />
</svg>